%TF.GenerationSoftware,KiCad,Pcbnew,9.0.3*%
%TF.CreationDate,2026-07-09T00:52:22-06:00*%
%TF.ProjectId,SafeGuardBuzzer_v1,53616665-4775-4617-9264-42757a7a6572,rev?*%
%TF.SameCoordinates,Original*%
%TF.FileFunction,Copper,L1,Top*%
%TF.FilePolarity,Positive*%
%FSLAX46Y46*%
G04 Gerber Fmt 4.6, Leading zero omitted, Abs format (unit mm)*
G04 Created by KiCad (PCBNEW 9.0.3) date 2026-07-09 00:52:22*
%MOMM*%
%LPD*%
G01*
G04 APERTURE LIST*
G04 Aperture macros list*
%AMRoundRect*
0 Rectangle with rounded corners*
0 $1 Rounding radius*
0 $2 $3 $4 $5 $6 $7 $8 $9 X,Y pos of 4 corners*
0 Add a 4 corners polygon primitive as box body*
4,1,4,$2,$3,$4,$5,$6,$7,$8,$9,$2,$3,0*
0 Add four circle primitives for the rounded corners*
1,1,$1+$1,$2,$3*
1,1,$1+$1,$4,$5*
1,1,$1+$1,$6,$7*
1,1,$1+$1,$8,$9*
0 Add four rect primitives between the rounded corners*
20,1,$1+$1,$2,$3,$4,$5,0*
20,1,$1+$1,$4,$5,$6,$7,0*
20,1,$1+$1,$6,$7,$8,$9,0*
20,1,$1+$1,$8,$9,$2,$3,0*%
%AMFreePoly0*
4,1,121,0.103536,0.503536,0.105000,0.500000,0.105000,-0.500000,0.103536,-0.503536,0.100000,-0.505000,-0.500000,-0.505000,-0.500192,-0.504996,-0.526192,-0.503996,-0.526383,-0.503985,-0.552383,-0.501985,-0.552573,-0.501967,-0.578573,-0.498967,-0.578944,-0.498910,-0.604944,-0.493910,-0.605167,-0.493862,-0.630167,-0.487862,-0.630300,-0.487828,-0.656300,-0.480828,-0.656756,-0.480682,-0.680756,-0.471682,
-0.680923,-0.471615,-0.704923,-0.461615,-0.705083,-0.461545,-0.729083,-0.450545,-0.729460,-0.450353,-0.752460,-0.437353,-0.752684,-0.437218,-0.796684,-0.409218,-0.797030,-0.408977,-0.818030,-0.392977,-0.818238,-0.392810,-0.838238,-0.375810,-0.838439,-0.375630,-0.857439,-0.357630,-0.857630,-0.357439,-0.875630,-0.338439,-0.875810,-0.338238,-0.892810,-0.318238,-0.892977,-0.318030,-0.908977,-0.297030,
-0.909218,-0.296684,-0.937218,-0.252684,-0.937353,-0.252460,-0.950353,-0.229460,-0.950545,-0.229083,-0.961545,-0.205083,-0.961615,-0.204923,-0.971615,-0.180923,-0.971682,-0.180756,-0.980682,-0.156756,-0.980828,-0.156300,-0.987828,-0.130300,-0.987862,-0.130167,-0.993862,-0.105167,-0.993910,-0.104944,-0.998910,-0.078944,-0.998967,-0.078573,-1.001967,-0.052573,-1.001985,-0.052383,-1.003985,-0.026383,
-1.003996,-0.026192,-1.004996,-0.000192,-1.004996,0.000192,-1.003996,0.026192,-1.003985,0.026383,-1.001985,0.052383,-1.001967,0.052573,-0.998967,0.078573,-0.998910,0.078944,-0.993910,0.104944,-0.993862,0.105167,-0.987862,0.130167,-0.987828,0.130300,-0.980828,0.156300,-0.980682,0.156756,-0.971682,0.180756,-0.971615,0.180923,-0.961615,0.204923,-0.961545,0.205083,-0.950545,0.229083,
-0.950353,0.229460,-0.937353,0.252460,-0.937218,0.252684,-0.909218,0.296684,-0.908977,0.297030,-0.892977,0.318030,-0.892810,0.318238,-0.875810,0.338238,-0.875630,0.338439,-0.857630,0.357439,-0.857439,0.357630,-0.838439,0.375630,-0.838238,0.375810,-0.818238,0.392810,-0.818030,0.392977,-0.797030,0.408977,-0.796684,0.409218,-0.752684,0.437218,-0.752460,0.437353,-0.729460,0.450353,
-0.729083,0.450545,-0.705083,0.461545,-0.704923,0.461615,-0.680923,0.471615,-0.680756,0.471682,-0.656756,0.480682,-0.656300,0.480828,-0.630300,0.487828,-0.630167,0.487862,-0.605167,0.493862,-0.604944,0.493910,-0.578944,0.498910,-0.578573,0.498967,-0.552573,0.501967,-0.552383,0.501985,-0.526383,0.503985,-0.526192,0.503996,-0.500192,0.504996,-0.500000,0.505000,0.100000,0.505000,
0.103536,0.503536,0.103536,0.503536,$1*%
%AMFreePoly1*
4,1,121,1.003536,0.503536,1.005000,0.500000,1.005000,-0.500000,1.003536,-0.503536,1.000000,-0.505000,-0.500000,-0.505000,-0.500192,-0.504996,-0.526192,-0.503996,-0.526383,-0.503985,-0.552383,-0.501985,-0.552573,-0.501967,-0.578573,-0.498967,-0.578944,-0.498910,-0.604944,-0.493910,-0.605167,-0.493862,-0.630167,-0.487862,-0.630300,-0.487828,-0.656300,-0.480828,-0.656756,-0.480682,-0.680756,-0.471682,
-0.680923,-0.471615,-0.704923,-0.461615,-0.705083,-0.461545,-0.729083,-0.450545,-0.729460,-0.450353,-0.752460,-0.437353,-0.752684,-0.437218,-0.796684,-0.409218,-0.797030,-0.408977,-0.818030,-0.392977,-0.818238,-0.392810,-0.838238,-0.375810,-0.838439,-0.375630,-0.857439,-0.357630,-0.857630,-0.357439,-0.875630,-0.338439,-0.875810,-0.338238,-0.892810,-0.318238,-0.892977,-0.318030,-0.908977,-0.297030,
-0.909218,-0.296684,-0.937218,-0.252684,-0.937353,-0.252460,-0.950353,-0.229460,-0.950545,-0.229083,-0.961545,-0.205083,-0.961615,-0.204923,-0.971615,-0.180923,-0.971682,-0.180756,-0.980682,-0.156756,-0.980828,-0.156300,-0.987828,-0.130300,-0.987862,-0.130167,-0.993862,-0.105167,-0.993910,-0.104944,-0.998910,-0.078944,-0.998967,-0.078573,-1.001967,-0.052573,-1.001985,-0.052383,-1.003985,-0.026383,
-1.003996,-0.026192,-1.004996,-0.000192,-1.004996,0.000192,-1.003996,0.026192,-1.003985,0.026383,-1.001985,0.052383,-1.001967,0.052573,-0.998967,0.078573,-0.998910,0.078944,-0.993910,0.104944,-0.993862,0.105167,-0.987862,0.130167,-0.987828,0.130300,-0.980828,0.156300,-0.980682,0.156756,-0.971682,0.180756,-0.971615,0.180923,-0.961615,0.204923,-0.961545,0.205083,-0.950545,0.229083,
-0.950353,0.229460,-0.937353,0.252460,-0.937218,0.252684,-0.909218,0.296684,-0.908977,0.297030,-0.892977,0.318030,-0.892810,0.318238,-0.875810,0.338238,-0.875630,0.338439,-0.857630,0.357439,-0.857439,0.357630,-0.838439,0.375630,-0.838238,0.375810,-0.818238,0.392810,-0.818030,0.392977,-0.797030,0.408977,-0.796684,0.409218,-0.752684,0.437218,-0.752460,0.437353,-0.729460,0.450353,
-0.729083,0.450545,-0.705083,0.461545,-0.704923,0.461615,-0.680923,0.471615,-0.680756,0.471682,-0.656756,0.480682,-0.656300,0.480828,-0.630300,0.487828,-0.630167,0.487862,-0.605167,0.493862,-0.604944,0.493910,-0.578944,0.498910,-0.578573,0.498967,-0.552573,0.501967,-0.552383,0.501985,-0.526383,0.503985,-0.526192,0.503996,-0.500192,0.504996,-0.500000,0.505000,1.000000,0.505000,
1.003536,0.503536,1.003536,0.503536,$1*%
%AMFreePoly2*
4,1,121,0.503536,1.003536,0.505000,1.000000,0.505000,-0.500000,0.504996,-0.500192,0.503996,-0.526192,0.503985,-0.526383,0.501985,-0.552383,0.501967,-0.552573,0.498967,-0.578573,0.498910,-0.578944,0.493910,-0.604944,0.493862,-0.605167,0.487862,-0.630167,0.487828,-0.630300,0.480828,-0.656300,0.480682,-0.656756,0.471682,-0.680756,0.471615,-0.680923,0.461615,-0.704923,0.461545,-0.705083,
0.450545,-0.729083,0.450353,-0.729460,0.437353,-0.752460,0.437218,-0.752684,0.409218,-0.796684,0.408977,-0.797030,0.392977,-0.818030,0.392810,-0.818238,0.375810,-0.838238,0.375630,-0.838439,0.357630,-0.857439,0.357439,-0.857630,0.338439,-0.875630,0.338238,-0.875810,0.318238,-0.892810,0.318030,-0.892977,0.297030,-0.908977,0.296684,-0.909218,0.252684,-0.937218,0.252460,-0.937353,
0.229460,-0.950353,0.229083,-0.950545,0.205083,-0.961545,0.204923,-0.961615,0.180923,-0.971615,0.180756,-0.971682,0.156756,-0.980682,0.156300,-0.980828,0.130300,-0.987828,0.130167,-0.987862,0.105167,-0.993862,0.104944,-0.993910,0.078944,-0.998910,0.078573,-0.998967,0.052573,-1.001967,0.052383,-1.001985,0.026383,-1.003985,0.026192,-1.003996,0.000192,-1.004996,-0.000192,-1.004996,
-0.026192,-1.003996,-0.026383,-1.003985,-0.052383,-1.001985,-0.052573,-1.001967,-0.078573,-0.998967,-0.078944,-0.998910,-0.104944,-0.993910,-0.105167,-0.993862,-0.130167,-0.987862,-0.130300,-0.987828,-0.156300,-0.980828,-0.156756,-0.980682,-0.180756,-0.971682,-0.180923,-0.971615,-0.204923,-0.961615,-0.205083,-0.961545,-0.229083,-0.950545,-0.229460,-0.950353,-0.252460,-0.937353,-0.252684,-0.937218,
-0.296684,-0.909218,-0.297030,-0.908977,-0.318030,-0.892977,-0.318238,-0.892810,-0.338238,-0.875810,-0.338439,-0.875630,-0.357439,-0.857630,-0.357630,-0.857439,-0.375630,-0.838439,-0.375810,-0.838238,-0.392810,-0.818238,-0.392977,-0.818030,-0.408977,-0.797030,-0.409218,-0.796684,-0.437218,-0.752684,-0.437353,-0.752460,-0.450353,-0.729460,-0.450545,-0.729083,-0.461545,-0.705083,-0.461615,-0.704923,
-0.471615,-0.680923,-0.471682,-0.680756,-0.480682,-0.656756,-0.480828,-0.656300,-0.487828,-0.630300,-0.487862,-0.630167,-0.493862,-0.605167,-0.493910,-0.604944,-0.498910,-0.578944,-0.498967,-0.578573,-0.501967,-0.552573,-0.501985,-0.552383,-0.503985,-0.526383,-0.503996,-0.526192,-0.504996,-0.500192,-0.505000,-0.500000,-0.505000,1.000000,-0.503536,1.003536,-0.500000,1.005000,0.500000,1.005000,
0.503536,1.003536,0.503536,1.003536,$1*%
%AMFreePoly3*
4,1,121,0.500192,0.504996,0.526192,0.503996,0.526383,0.503985,0.552383,0.501985,0.552573,0.501967,0.578573,0.498967,0.578944,0.498910,0.604944,0.493910,0.605167,0.493862,0.630167,0.487862,0.630300,0.487828,0.656300,0.480828,0.656756,0.480682,0.680756,0.471682,0.680923,0.471615,0.704923,0.461615,0.705083,0.461545,0.729083,0.450545,0.729460,0.450353,0.752460,0.437353,
0.752684,0.437218,0.796684,0.409218,0.797030,0.408977,0.818030,0.392977,0.818238,0.392810,0.838238,0.375810,0.838439,0.375630,0.857439,0.357630,0.857630,0.357439,0.875630,0.338439,0.875810,0.338238,0.892810,0.318238,0.892977,0.318030,0.908977,0.297030,0.909218,0.296684,0.937218,0.252684,0.937353,0.252460,0.950353,0.229460,0.950545,0.229083,0.961545,0.205083,
0.961615,0.204923,0.971615,0.180923,0.971682,0.180756,0.980682,0.156756,0.980828,0.156300,0.987828,0.130300,0.987862,0.130167,0.993862,0.105167,0.993910,0.104944,0.998910,0.078944,0.998967,0.078573,1.001967,0.052573,1.001985,0.052383,1.003985,0.026383,1.003996,0.026192,1.004996,0.000192,1.004996,-0.000192,1.003996,-0.026192,1.003985,-0.026383,1.001985,-0.052383,
1.001967,-0.052573,0.998967,-0.078573,0.998910,-0.078944,0.993910,-0.104944,0.993862,-0.105167,0.987862,-0.130167,0.987828,-0.130300,0.980828,-0.156300,0.980682,-0.156756,0.971682,-0.180756,0.971615,-0.180923,0.961615,-0.204923,0.961545,-0.205083,0.950545,-0.229083,0.950353,-0.229460,0.937353,-0.252460,0.937218,-0.252684,0.909218,-0.296684,0.908977,-0.297030,0.892977,-0.318030,
0.892810,-0.318238,0.875810,-0.338238,0.875630,-0.338439,0.857630,-0.357439,0.857439,-0.357630,0.838439,-0.375630,0.838238,-0.375810,0.818238,-0.392810,0.818030,-0.392977,0.797030,-0.408977,0.796684,-0.409218,0.752684,-0.437218,0.752460,-0.437353,0.729460,-0.450353,0.729083,-0.450545,0.705083,-0.461545,0.704923,-0.461615,0.680923,-0.471615,0.680756,-0.471682,0.656756,-0.480682,
0.656300,-0.480828,0.630300,-0.487828,0.630167,-0.487862,0.605167,-0.493862,0.604944,-0.493910,0.578944,-0.498910,0.578573,-0.498967,0.552573,-0.501967,0.552383,-0.501985,0.526383,-0.503985,0.526192,-0.503996,0.500192,-0.504996,0.500000,-0.505000,-1.000000,-0.505000,-1.003536,-0.503536,-1.005000,-0.500000,-1.005000,0.500000,-1.003536,0.503536,-1.000000,0.505000,0.500000,0.505000,
0.500192,0.504996,0.500192,0.504996,$1*%
G04 Aperture macros list end*
%TA.AperFunction,SMDPad,CuDef*%
%ADD10RoundRect,0.200000X-0.200000X-0.275000X0.200000X-0.275000X0.200000X0.275000X-0.200000X0.275000X0*%
%TD*%
%TA.AperFunction,SMDPad,CuDef*%
%ADD11RoundRect,0.225000X-0.225000X-0.250000X0.225000X-0.250000X0.225000X0.250000X-0.225000X0.250000X0*%
%TD*%
%TA.AperFunction,SMDPad,CuDef*%
%ADD12FreePoly0,0.000000*%
%TD*%
%TA.AperFunction,SMDPad,CuDef*%
%ADD13FreePoly1,0.000000*%
%TD*%
%TA.AperFunction,SMDPad,CuDef*%
%ADD14FreePoly2,0.000000*%
%TD*%
%TA.AperFunction,SMDPad,CuDef*%
%ADD15FreePoly3,0.000000*%
%TD*%
%TA.AperFunction,SMDPad,CuDef*%
%ADD16C,1.000000*%
%TD*%
%TA.AperFunction,SMDPad,CuDef*%
%ADD17RoundRect,0.218750X-0.218750X-0.256250X0.218750X-0.256250X0.218750X0.256250X-0.218750X0.256250X0*%
%TD*%
%TA.AperFunction,SMDPad,CuDef*%
%ADD18R,1.000000X0.800000*%
%TD*%
%TA.AperFunction,SMDPad,CuDef*%
%ADD19R,0.700000X1.500000*%
%TD*%
%TA.AperFunction,SMDPad,CuDef*%
%ADD20RoundRect,0.260000X-0.490000X-0.390000X0.490000X-0.390000X0.490000X0.390000X-0.490000X0.390000X0*%
%TD*%
%TA.AperFunction,SMDPad,CuDef*%
%ADD21RoundRect,0.200000X0.275000X-0.200000X0.275000X0.200000X-0.275000X0.200000X-0.275000X-0.200000X0*%
%TD*%
%TA.AperFunction,SMDPad,CuDef*%
%ADD22RoundRect,0.250000X-0.250000X-0.475000X0.250000X-0.475000X0.250000X0.475000X-0.250000X0.475000X0*%
%TD*%
%TA.AperFunction,SMDPad,CuDef*%
%ADD23RoundRect,0.112500X-0.187500X-0.112500X0.187500X-0.112500X0.187500X0.112500X-0.187500X0.112500X0*%
%TD*%
%TA.AperFunction,SMDPad,CuDef*%
%ADD24RoundRect,0.150000X-0.587500X-0.150000X0.587500X-0.150000X0.587500X0.150000X-0.587500X0.150000X0*%
%TD*%
%TA.AperFunction,SMDPad,CuDef*%
%ADD25RoundRect,0.250000X-0.325000X-1.100000X0.325000X-1.100000X0.325000X1.100000X-0.325000X1.100000X0*%
%TD*%
%TA.AperFunction,SMDPad,CuDef*%
%ADD26R,2.500000X4.000000*%
%TD*%
%TA.AperFunction,ViaPad*%
%ADD27C,0.650000*%
%TD*%
%TA.AperFunction,ViaPad*%
%ADD28C,0.600000*%
%TD*%
%TA.AperFunction,Conductor*%
%ADD29C,0.300000*%
%TD*%
%TA.AperFunction,Conductor*%
%ADD30C,0.150000*%
%TD*%
%TA.AperFunction,Conductor*%
%ADD31C,0.180000*%
%TD*%
%TA.AperFunction,Conductor*%
%ADD32C,0.450000*%
%TD*%
%TA.AperFunction,Conductor*%
%ADD33C,0.250000*%
%TD*%
%TA.AperFunction,Conductor*%
%ADD34C,0.220000*%
%TD*%
%TA.AperFunction,Conductor*%
%ADD35C,0.350000*%
%TD*%
G04 APERTURE END LIST*
D10*
%TO.P,R1,1*%
%TO.N,VCC*%
X80175000Y-8000000D03*
%TO.P,R1,2*%
%TO.N,LED_A*%
X81825000Y-8000000D03*
%TD*%
D11*
%TO.P,C2,1*%
%TO.N,VCC*%
X62725000Y-20500000D03*
%TO.P,C2,2*%
%TO.N,GND*%
X64275000Y-20500000D03*
%TD*%
D12*
%TO.P,U1,J1*%
%TO.N,GND*%
X63250000Y-9000000D03*
D13*
%TO.P,U1,J2*%
X63250000Y-10500000D03*
%TO.P,U1,J3*%
X63250000Y-12000000D03*
%TO.P,U1,J4*%
X63250000Y-13500000D03*
%TO.P,U1,J5*%
%TO.N,unconnected-(U1-P0_6-PadJ5)*%
X63250000Y-15000000D03*
D14*
%TO.P,U1,J6*%
%TO.N,GND*%
X65250000Y-16750000D03*
%TO.P,U1,J7*%
%TO.N,VCC*%
X66750000Y-16750000D03*
%TO.P,U1,J8*%
%TO.N,unconnected-(U1-P0_11-PadJ8)*%
X68250000Y-16750000D03*
%TO.P,U1,J9*%
%TO.N,SWDIO*%
X69750000Y-16750000D03*
%TO.P,U1,J10*%
%TO.N,SWCLK*%
X71250000Y-16750000D03*
%TO.P,U1,J11*%
%TO.N,GND*%
X72750000Y-16750000D03*
D15*
%TO.P,U1,J12*%
%TO.N,unconnected-(U1-P0_0{slash}RST-PadJ12)*%
X74750000Y-15000000D03*
%TO.P,U1,J13*%
%TO.N,unconnected-(U1-P0_7-PadJ13)*%
X74750000Y-13500000D03*
%TO.P,U1,J14*%
%TO.N,unconnected-(U1-P0_5-PadJ14)*%
X74750000Y-12000000D03*
%TO.P,U1,J15*%
%TO.N,BUZZER_PWM*%
X74750000Y-10500000D03*
%TO.P,U1,J16*%
%TO.N,LED_STATUS*%
X74750000Y-9000000D03*
%TD*%
D16*
%TO.P,J2,1*%
%TO.N,VBAT_RAW*%
X20365000Y-10000000D03*
%TO.P,J2,2*%
%TO.N,GND*%
X21635000Y-10000000D03*
%TD*%
D17*
%TO.P,D1,1*%
%TO.N,LED_A*%
X83412500Y-8000000D03*
%TO.P,D1,2*%
%TO.N,LED_STATUS*%
X84987500Y-8000000D03*
%TD*%
D18*
%TO.P,S1,*%
%TO.N,*%
X3350000Y-6220000D03*
X3350000Y-8430000D03*
X10650000Y-6220000D03*
X10650000Y-8430000D03*
D19*
%TO.P,S1,1*%
%TO.N,unconnected-(S1-A-Pad1)*%
X4750000Y-5570000D03*
%TO.P,S1,2*%
%TO.N,VBAT_RAW*%
X7750000Y-5570000D03*
%TO.P,S1,3*%
%TO.N,VBAT_SW*%
X9250000Y-5570000D03*
%TD*%
D20*
%TO.P,JP1,1*%
%TO.N,VBAT_SW*%
X26050000Y-8000000D03*
%TO.P,JP1,2*%
%TO.N,VCC*%
X27950000Y-8000000D03*
%TD*%
D21*
%TO.P,R3,1*%
%TO.N,BUZZER_PWM_GATE*%
X88400000Y-38625000D03*
%TO.P,R3,2*%
%TO.N,GND*%
X88400000Y-36975000D03*
%TD*%
D22*
%TO.P,C1,1*%
%TO.N,VCC*%
X57050000Y-22200000D03*
%TO.P,C1,2*%
%TO.N,GND*%
X58950000Y-22200000D03*
%TD*%
D23*
%TO.P,D2,1*%
%TO.N,BUZZER_NEG*%
X84950000Y-43000000D03*
%TO.P,D2,2*%
%TO.N,VCC*%
X87050000Y-43000000D03*
%TD*%
D24*
%TO.P,Q1,1*%
%TO.N,BUZZER_PWM_GATE*%
X85562500Y-32050000D03*
%TO.P,Q1,2*%
%TO.N,BUZZER_NEG*%
X85562500Y-33950000D03*
%TO.P,Q1,3*%
%TO.N,GND*%
X87437500Y-33000000D03*
%TD*%
D16*
%TO.P,J1,1*%
%TO.N,VCC*%
X67095000Y-23500000D03*
%TO.P,J1,2*%
%TO.N,SWDIO*%
X68365000Y-23500000D03*
%TO.P,J1,3*%
%TO.N,SWCLK*%
X69635000Y-23500000D03*
%TO.P,J1,4*%
%TO.N,GND*%
X70905000Y-23500000D03*
%TD*%
D10*
%TO.P,R2,1*%
%TO.N,BUZZER_PWM*%
X77175000Y-10500000D03*
%TO.P,R2,2*%
%TO.N,BUZZER_PWM_GATE*%
X78825000Y-10500000D03*
%TD*%
D25*
%TO.P,C3,1*%
%TO.N,VCC*%
X51525000Y-22200000D03*
%TO.P,C3,2*%
%TO.N,GND*%
X54475000Y-22200000D03*
%TD*%
D26*
%TO.P,BZ1,1*%
%TO.N,VCC*%
X75000000Y-28500000D03*
%TO.P,BZ1,2*%
%TO.N,BUZZER_NEG*%
X75000000Y-39500000D03*
%TD*%
D27*
%TO.N,GND*%
X21635000Y-12000000D03*
X88000000Y-34500000D03*
X72750000Y-17800000D03*
X58950000Y-24200000D03*
X54475000Y-24200000D03*
X46820000Y-30000000D03*
X61500000Y-13500000D03*
X65250000Y-15600000D03*
X64275000Y-22200000D03*
%TO.N,VCC*%
X29000000Y-8000000D03*
X53000000Y-19800000D03*
X87050000Y-43000000D03*
X75000000Y-27500000D03*
X58000000Y-19800000D03*
X66750000Y-18900000D03*
X80175000Y-8000000D03*
D28*
%TO.N,VBAT_RAW*%
X12700000Y-27000000D03*
X12700000Y-40000000D03*
X43300000Y-40000000D03*
%TO.N,GND*%
X28000000Y-27000000D03*
%TD*%
D29*
%TO.N,BUZZER_NEG*%
X75000000Y-39500000D02*
X81000000Y-39500000D01*
X75000000Y-39500000D02*
X75000000Y-43000000D01*
X75000000Y-43000000D02*
X84950000Y-43000000D01*
X81000000Y-33950000D02*
X85562500Y-33950000D01*
X81000000Y-39500000D02*
X81000000Y-33950000D01*
D30*
%TO.N,BUZZER_PWM*%
X74750000Y-10500000D02*
X77175000Y-10500000D01*
%TO.N,BUZZER_PWM_GATE*%
X89350000Y-38625000D02*
X88400000Y-38625000D01*
X89350000Y-10500000D02*
X89350000Y-32050000D01*
X78825000Y-10500000D02*
X89350000Y-10500000D01*
X89350000Y-32050000D02*
X89350000Y-38625000D01*
X89350000Y-32050000D02*
X85562500Y-32050000D01*
D31*
%TO.N,GND*%
X72750000Y-16750000D02*
X72750000Y-17800000D01*
D32*
X46820000Y-26000000D02*
X46820000Y-30000000D01*
D33*
X21635000Y-10000000D02*
X21635000Y-12000000D01*
D31*
X63250000Y-12000000D02*
X63250000Y-13500000D01*
D34*
X58950000Y-22200000D02*
X58950000Y-24200000D01*
D31*
X65250000Y-16750000D02*
X65250000Y-15600000D01*
X63250000Y-10500000D02*
X63250000Y-12000000D01*
X88400000Y-36975000D02*
X88000000Y-34500000D01*
X63250000Y-9000000D02*
X63250000Y-10500000D01*
X72750000Y-23500000D02*
X72750000Y-17800000D01*
X70905000Y-23500000D02*
X72750000Y-23500000D01*
D33*
X87437500Y-33000000D02*
X88000000Y-34500000D01*
D34*
X64275000Y-20500000D02*
X64275000Y-22200000D01*
X54475000Y-22200000D02*
X54475000Y-24200000D01*
D31*
X63250000Y-13500000D02*
X61500000Y-13500000D01*
D30*
%TO.N,LED_A*%
X81825000Y-8000000D02*
X83412500Y-8000000D01*
%TO.N,LED_STATUS*%
X86500000Y-9000000D02*
X86500000Y-8000000D01*
X74750000Y-9000000D02*
X78000000Y-9000000D01*
X86500000Y-8000000D02*
X84987500Y-8000000D01*
X78000000Y-9000000D02*
X86500000Y-9000000D01*
%TO.N,SWCLK*%
X71250000Y-19200000D02*
X70400000Y-21200000D01*
X70400000Y-21200000D02*
X69635000Y-23500000D01*
X71250000Y-16750000D02*
X71250000Y-19200000D01*
%TO.N,SWDIO*%
X69750000Y-16750000D02*
X69750000Y-19100000D01*
X69750000Y-19100000D02*
X68365000Y-23500000D01*
D32*
%TO.N,VBAT_RAW*%
X2200000Y-3800000D02*
X7750000Y-3800000D01*
D33*
X15000000Y-26000000D02*
X15000000Y-10000000D01*
X15000000Y-10000000D02*
X20365000Y-10000000D01*
D32*
X2200000Y-26000000D02*
X2200000Y-3800000D01*
D33*
X9180000Y-26000000D02*
X15000000Y-26000000D01*
D32*
X7750000Y-3800000D02*
X7750000Y-5570000D01*
X9180000Y-26000000D02*
X2200000Y-26000000D01*
%TO.N,VBAT_SW*%
X9250000Y-5570000D02*
X9250000Y-2700000D01*
X21000000Y-2700000D02*
X26050000Y-8000000D01*
X9250000Y-2700000D02*
X21000000Y-2700000D01*
%TO.N,VCC*%
X75000000Y-27500000D02*
X75000000Y-28500000D01*
D34*
X58000000Y-19800000D02*
X57050000Y-22200000D01*
D31*
X66750000Y-16750000D02*
X66750000Y-18900000D01*
X67095000Y-23500000D02*
X66750000Y-23500000D01*
D32*
X27950000Y-8000000D02*
X29000000Y-8000000D01*
D31*
X62725000Y-18900000D02*
X62725000Y-20500000D01*
X66750000Y-18900000D02*
X62725000Y-18900000D01*
D34*
X53000000Y-19800000D02*
X51525000Y-22200000D01*
D31*
X66750000Y-23500000D02*
X66750000Y-18900000D01*
D35*
%TO.N,VBAT_RAW*%
X12700000Y-40000000D02*
X43300000Y-40000000D01*
X12700000Y-27000000D02*
X15000000Y-26000000D01*
%TO.N,GND*%
X28000000Y-27000000D02*
X46820000Y-26000000D01*
%TD*%
M02*
