%TF.GenerationSoftware,KiCad,Pcbnew,9.0.3*%
%TF.CreationDate,2026-07-09T00:52:22-06:00*%
%TF.ProjectId,SafeGuardBuzzer_v1,53616665-4775-4617-9264-42757a7a6572,rev?*%
%TF.SameCoordinates,Original*%
%TF.FileFunction,Copper,L2,Bot*%
%TF.FilePolarity,Positive*%
%FSLAX46Y46*%
G04 Gerber Fmt 4.6, Leading zero omitted, Abs format (unit mm)*
G04 Created by KiCad (PCBNEW 9.0.3) date 2026-07-09 00:52:22*
%MOMM*%
%LPD*%
G01*
G04 APERTURE LIST*
%TA.AperFunction,SMDPad,CuDef*%
%ADD10R,6.000000X5.500000*%
%TD*%
%TA.AperFunction,SMDPad,CuDef*%
%ADD11C,20.000000*%
%TD*%
%TA.AperFunction,ViaPad*%
%ADD12C,0.650000*%
%TD*%
%TA.AperFunction,ViaPad*%
%ADD13C,0.600000*%
%TD*%
%TA.AperFunction,Conductor*%
%ADD14C,0.250000*%
%TD*%
%TA.AperFunction,Conductor*%
%ADD15C,0.350000*%
%TD*%
%TA.AperFunction,Conductor*%
%ADD16C,0.300000*%
%TD*%
%TA.AperFunction,Conductor*%
%ADD17C,0.450000*%
%TD*%
%TA.AperFunction,Conductor*%
%ADD18C,0.220000*%
%TD*%
G04 APERTURE END LIST*
D10*
%TO.P,BT1,1*%
%TO.N,VBAT_RAW*%
X12700000Y-27000000D03*
X43300000Y-27000000D03*
D11*
%TO.P,BT1,2*%
%TO.N,GND*%
X28000000Y-27000000D03*
%TD*%
D12*
%TO.N,GND*%
X21635000Y-12000000D03*
X88000000Y-34500000D03*
X72750000Y-17800000D03*
X58950000Y-24200000D03*
X54475000Y-24200000D03*
X46820000Y-30000000D03*
X61500000Y-13500000D03*
X65250000Y-15600000D03*
X64275000Y-22200000D03*
%TO.N,VCC*%
X29000000Y-8000000D03*
X53000000Y-19800000D03*
X87050000Y-43000000D03*
X75000000Y-27500000D03*
X58000000Y-19800000D03*
X66750000Y-18900000D03*
X80175000Y-8000000D03*
D13*
%TO.N,VBAT_RAW*%
X12700000Y-27000000D03*
X12700000Y-40000000D03*
X43300000Y-40000000D03*
%TO.N,GND*%
X28000000Y-27000000D03*
%TD*%
D14*
%TO.N,GND*%
X65250000Y-15600000D02*
X61500000Y-15600000D01*
X58950000Y-24200000D02*
X64275000Y-22200000D01*
D15*
X88000000Y-34500000D02*
X88000000Y-44000000D01*
D14*
X72750000Y-17800000D02*
X88000000Y-17800000D01*
X64275000Y-22200000D02*
X61500000Y-22200000D01*
D16*
X61500000Y-31000000D02*
X46820000Y-31000000D01*
X21635000Y-12000000D02*
X21635000Y-44000000D01*
D17*
X46820000Y-30000000D02*
X46820000Y-44000000D01*
D16*
X61500000Y-13500000D02*
X61500000Y-31000000D01*
D14*
X54475000Y-24200000D02*
X58950000Y-24200000D01*
X88000000Y-17800000D02*
X88000000Y-44000000D01*
D16*
X21635000Y-44000000D02*
X46820000Y-44000000D01*
D17*
X46820000Y-44000000D02*
X88000000Y-44000000D01*
D16*
%TO.N,VCC*%
X83000000Y-27500000D02*
X83000000Y-43000000D01*
X58000000Y-19800000D02*
X53000000Y-19800000D01*
D18*
X66750000Y-8000000D02*
X80175000Y-8000000D01*
D16*
X58000000Y-8000000D02*
X58000000Y-19800000D01*
D17*
X66750000Y-18900000D02*
X80000000Y-18900000D01*
X80000000Y-27500000D02*
X75000000Y-27500000D01*
X80000000Y-18900000D02*
X80000000Y-27500000D01*
D16*
X83000000Y-43000000D02*
X87050000Y-43000000D01*
X75000000Y-27500000D02*
X83000000Y-27500000D01*
D17*
X29000000Y-8000000D02*
X66750000Y-8000000D01*
X66750000Y-8000000D02*
X66750000Y-18900000D01*
D15*
%TO.N,VBAT_RAW*%
X12700000Y-27000000D02*
X12700000Y-40000000D01*
X43300000Y-40000000D02*
X43300000Y-27000000D01*
%TD*%
M02*
