%TF.GenerationSoftware,KiCad,Pcbnew,9.0.3*%
%TF.CreationDate,2026-07-14T22:43:40-06:00*%
%TF.ProjectId,SafeGuardBuzzer_v1,53616665-4775-4617-9264-42757a7a6572,rev?*%
%TF.SameCoordinates,Original*%
%TF.FileFunction,Legend,Top*%
%TF.FilePolarity,Positive*%
%FSLAX46Y46*%
G04 Gerber Fmt 4.6, Leading zero omitted, Abs format (unit mm)*
G04 Created by KiCad (PCBNEW 9.0.3) date 2026-07-14 22:43:40*
%MOMM*%
%LPD*%
G01*
G04 APERTURE LIST*
%ADD10C,0.150000*%
%ADD11C,0.100000*%
%ADD12C,0.120000*%
%ADD13C,0.127000*%
%ADD14C,0.200000*%
G04 APERTURE END LIST*
D10*
X80833333Y-7024819D02*
X80500000Y-6548628D01*
X80261905Y-7024819D02*
X80261905Y-6024819D01*
X80261905Y-6024819D02*
X80642857Y-6024819D01*
X80642857Y-6024819D02*
X80738095Y-6072438D01*
X80738095Y-6072438D02*
X80785714Y-6120057D01*
X80785714Y-6120057D02*
X80833333Y-6215295D01*
X80833333Y-6215295D02*
X80833333Y-6358152D01*
X80833333Y-6358152D02*
X80785714Y-6453390D01*
X80785714Y-6453390D02*
X80738095Y-6501009D01*
X80738095Y-6501009D02*
X80642857Y-6548628D01*
X80642857Y-6548628D02*
X80261905Y-6548628D01*
X81785714Y-7024819D02*
X81214286Y-7024819D01*
X81500000Y-7024819D02*
X81500000Y-6024819D01*
X81500000Y-6024819D02*
X81404762Y-6167676D01*
X81404762Y-6167676D02*
X81309524Y-6262914D01*
X81309524Y-6262914D02*
X81214286Y-6310533D01*
X63333333Y-19429580D02*
X63285714Y-19477200D01*
X63285714Y-19477200D02*
X63142857Y-19524819D01*
X63142857Y-19524819D02*
X63047619Y-19524819D01*
X63047619Y-19524819D02*
X62904762Y-19477200D01*
X62904762Y-19477200D02*
X62809524Y-19381961D01*
X62809524Y-19381961D02*
X62761905Y-19286723D01*
X62761905Y-19286723D02*
X62714286Y-19096247D01*
X62714286Y-19096247D02*
X62714286Y-18953390D01*
X62714286Y-18953390D02*
X62761905Y-18762914D01*
X62761905Y-18762914D02*
X62809524Y-18667676D01*
X62809524Y-18667676D02*
X62904762Y-18572438D01*
X62904762Y-18572438D02*
X63047619Y-18524819D01*
X63047619Y-18524819D02*
X63142857Y-18524819D01*
X63142857Y-18524819D02*
X63285714Y-18572438D01*
X63285714Y-18572438D02*
X63333333Y-18620057D01*
X63714286Y-18620057D02*
X63761905Y-18572438D01*
X63761905Y-18572438D02*
X63857143Y-18524819D01*
X63857143Y-18524819D02*
X64095238Y-18524819D01*
X64095238Y-18524819D02*
X64190476Y-18572438D01*
X64190476Y-18572438D02*
X64238095Y-18620057D01*
X64238095Y-18620057D02*
X64285714Y-18715295D01*
X64285714Y-18715295D02*
X64285714Y-18810533D01*
X64285714Y-18810533D02*
X64238095Y-18953390D01*
X64238095Y-18953390D02*
X63666667Y-19524819D01*
X63666667Y-19524819D02*
X64285714Y-19524819D01*
X65163095Y-1069819D02*
X65163095Y-1879342D01*
X65163095Y-1879342D02*
X65210714Y-1974580D01*
X65210714Y-1974580D02*
X65258333Y-2022200D01*
X65258333Y-2022200D02*
X65353571Y-2069819D01*
X65353571Y-2069819D02*
X65544047Y-2069819D01*
X65544047Y-2069819D02*
X65639285Y-2022200D01*
X65639285Y-2022200D02*
X65686904Y-1974580D01*
X65686904Y-1974580D02*
X65734523Y-1879342D01*
X65734523Y-1879342D02*
X65734523Y-1069819D01*
X66734523Y-2069819D02*
X66163095Y-2069819D01*
X66448809Y-2069819D02*
X66448809Y-1069819D01*
X66448809Y-1069819D02*
X66353571Y-1212676D01*
X66353571Y-1212676D02*
X66258333Y-1307914D01*
X66258333Y-1307914D02*
X66163095Y-1355533D01*
D11*
X20733333Y-7964895D02*
X20733333Y-8536323D01*
X20733333Y-8536323D02*
X20695238Y-8650609D01*
X20695238Y-8650609D02*
X20619047Y-8726800D01*
X20619047Y-8726800D02*
X20504762Y-8764895D01*
X20504762Y-8764895D02*
X20428571Y-8764895D01*
X21076190Y-8041085D02*
X21114286Y-8002990D01*
X21114286Y-8002990D02*
X21190476Y-7964895D01*
X21190476Y-7964895D02*
X21380952Y-7964895D01*
X21380952Y-7964895D02*
X21457143Y-8002990D01*
X21457143Y-8002990D02*
X21495238Y-8041085D01*
X21495238Y-8041085D02*
X21533333Y-8117276D01*
X21533333Y-8117276D02*
X21533333Y-8193466D01*
X21533333Y-8193466D02*
X21495238Y-8307752D01*
X21495238Y-8307752D02*
X21038095Y-8764895D01*
X21038095Y-8764895D02*
X21533333Y-8764895D01*
X20078571Y-9214895D02*
X19621428Y-9214895D01*
X19850000Y-9214895D02*
X19850000Y-8414895D01*
X19850000Y-8414895D02*
X19773809Y-8529180D01*
X19773809Y-8529180D02*
X19697619Y-8605371D01*
X19697619Y-8605371D02*
X19621428Y-8643466D01*
D10*
X83461905Y-7024819D02*
X83461905Y-6024819D01*
X83461905Y-6024819D02*
X83700000Y-6024819D01*
X83700000Y-6024819D02*
X83842857Y-6072438D01*
X83842857Y-6072438D02*
X83938095Y-6167676D01*
X83938095Y-6167676D02*
X83985714Y-6262914D01*
X83985714Y-6262914D02*
X84033333Y-6453390D01*
X84033333Y-6453390D02*
X84033333Y-6596247D01*
X84033333Y-6596247D02*
X83985714Y-6786723D01*
X83985714Y-6786723D02*
X83938095Y-6881961D01*
X83938095Y-6881961D02*
X83842857Y-6977200D01*
X83842857Y-6977200D02*
X83700000Y-7024819D01*
X83700000Y-7024819D02*
X83461905Y-7024819D01*
X84985714Y-7024819D02*
X84414286Y-7024819D01*
X84700000Y-7024819D02*
X84700000Y-6024819D01*
X84700000Y-6024819D02*
X84604762Y-6167676D01*
X84604762Y-6167676D02*
X84509524Y-6262914D01*
X84509524Y-6262914D02*
X84414286Y-6310533D01*
X6238095Y-4207200D02*
X6380952Y-4254819D01*
X6380952Y-4254819D02*
X6619047Y-4254819D01*
X6619047Y-4254819D02*
X6714285Y-4207200D01*
X6714285Y-4207200D02*
X6761904Y-4159580D01*
X6761904Y-4159580D02*
X6809523Y-4064342D01*
X6809523Y-4064342D02*
X6809523Y-3969104D01*
X6809523Y-3969104D02*
X6761904Y-3873866D01*
X6761904Y-3873866D02*
X6714285Y-3826247D01*
X6714285Y-3826247D02*
X6619047Y-3778628D01*
X6619047Y-3778628D02*
X6428571Y-3731009D01*
X6428571Y-3731009D02*
X6333333Y-3683390D01*
X6333333Y-3683390D02*
X6285714Y-3635771D01*
X6285714Y-3635771D02*
X6238095Y-3540533D01*
X6238095Y-3540533D02*
X6238095Y-3445295D01*
X6238095Y-3445295D02*
X6285714Y-3350057D01*
X6285714Y-3350057D02*
X6333333Y-3302438D01*
X6333333Y-3302438D02*
X6428571Y-3254819D01*
X6428571Y-3254819D02*
X6666666Y-3254819D01*
X6666666Y-3254819D02*
X6809523Y-3302438D01*
X7761904Y-4254819D02*
X7190476Y-4254819D01*
X7476190Y-4254819D02*
X7476190Y-3254819D01*
X7476190Y-3254819D02*
X7380952Y-3397676D01*
X7380952Y-3397676D02*
X7285714Y-3492914D01*
X7285714Y-3492914D02*
X7190476Y-3540533D01*
D11*
X26333333Y-5864895D02*
X26333333Y-6436323D01*
X26333333Y-6436323D02*
X26295238Y-6550609D01*
X26295238Y-6550609D02*
X26219047Y-6626800D01*
X26219047Y-6626800D02*
X26104762Y-6664895D01*
X26104762Y-6664895D02*
X26028571Y-6664895D01*
X26714286Y-6664895D02*
X26714286Y-5864895D01*
X26714286Y-5864895D02*
X27019048Y-5864895D01*
X27019048Y-5864895D02*
X27095238Y-5902990D01*
X27095238Y-5902990D02*
X27133333Y-5941085D01*
X27133333Y-5941085D02*
X27171429Y-6017276D01*
X27171429Y-6017276D02*
X27171429Y-6131561D01*
X27171429Y-6131561D02*
X27133333Y-6207752D01*
X27133333Y-6207752D02*
X27095238Y-6245847D01*
X27095238Y-6245847D02*
X27019048Y-6283942D01*
X27019048Y-6283942D02*
X26714286Y-6283942D01*
X27933333Y-6664895D02*
X27476190Y-6664895D01*
X27704762Y-6664895D02*
X27704762Y-5864895D01*
X27704762Y-5864895D02*
X27628571Y-5979180D01*
X27628571Y-5979180D02*
X27552381Y-6055371D01*
X27552381Y-6055371D02*
X27476190Y-6093466D01*
D10*
X87424819Y-37966666D02*
X86948628Y-38299999D01*
X87424819Y-38538094D02*
X86424819Y-38538094D01*
X86424819Y-38538094D02*
X86424819Y-38157142D01*
X86424819Y-38157142D02*
X86472438Y-38061904D01*
X86472438Y-38061904D02*
X86520057Y-38014285D01*
X86520057Y-38014285D02*
X86615295Y-37966666D01*
X86615295Y-37966666D02*
X86758152Y-37966666D01*
X86758152Y-37966666D02*
X86853390Y-38014285D01*
X86853390Y-38014285D02*
X86901009Y-38061904D01*
X86901009Y-38061904D02*
X86948628Y-38157142D01*
X86948628Y-38157142D02*
X86948628Y-38538094D01*
X86424819Y-37633332D02*
X86424819Y-37014285D01*
X86424819Y-37014285D02*
X86805771Y-37347618D01*
X86805771Y-37347618D02*
X86805771Y-37204761D01*
X86805771Y-37204761D02*
X86853390Y-37109523D01*
X86853390Y-37109523D02*
X86901009Y-37061904D01*
X86901009Y-37061904D02*
X86996247Y-37014285D01*
X86996247Y-37014285D02*
X87234342Y-37014285D01*
X87234342Y-37014285D02*
X87329580Y-37061904D01*
X87329580Y-37061904D02*
X87377200Y-37109523D01*
X87377200Y-37109523D02*
X87424819Y-37204761D01*
X87424819Y-37204761D02*
X87424819Y-37490475D01*
X87424819Y-37490475D02*
X87377200Y-37585713D01*
X87377200Y-37585713D02*
X87329580Y-37633332D01*
X57833333Y-20879580D02*
X57785714Y-20927200D01*
X57785714Y-20927200D02*
X57642857Y-20974819D01*
X57642857Y-20974819D02*
X57547619Y-20974819D01*
X57547619Y-20974819D02*
X57404762Y-20927200D01*
X57404762Y-20927200D02*
X57309524Y-20831961D01*
X57309524Y-20831961D02*
X57261905Y-20736723D01*
X57261905Y-20736723D02*
X57214286Y-20546247D01*
X57214286Y-20546247D02*
X57214286Y-20403390D01*
X57214286Y-20403390D02*
X57261905Y-20212914D01*
X57261905Y-20212914D02*
X57309524Y-20117676D01*
X57309524Y-20117676D02*
X57404762Y-20022438D01*
X57404762Y-20022438D02*
X57547619Y-19974819D01*
X57547619Y-19974819D02*
X57642857Y-19974819D01*
X57642857Y-19974819D02*
X57785714Y-20022438D01*
X57785714Y-20022438D02*
X57833333Y-20070057D01*
X58785714Y-20974819D02*
X58214286Y-20974819D01*
X58500000Y-20974819D02*
X58500000Y-19974819D01*
X58500000Y-19974819D02*
X58404762Y-20117676D01*
X58404762Y-20117676D02*
X58309524Y-20212914D01*
X58309524Y-20212914D02*
X58214286Y-20260533D01*
X85261905Y-41604819D02*
X85261905Y-40604819D01*
X85261905Y-40604819D02*
X85500000Y-40604819D01*
X85500000Y-40604819D02*
X85642857Y-40652438D01*
X85642857Y-40652438D02*
X85738095Y-40747676D01*
X85738095Y-40747676D02*
X85785714Y-40842914D01*
X85785714Y-40842914D02*
X85833333Y-41033390D01*
X85833333Y-41033390D02*
X85833333Y-41176247D01*
X85833333Y-41176247D02*
X85785714Y-41366723D01*
X85785714Y-41366723D02*
X85738095Y-41461961D01*
X85738095Y-41461961D02*
X85642857Y-41557200D01*
X85642857Y-41557200D02*
X85500000Y-41604819D01*
X85500000Y-41604819D02*
X85261905Y-41604819D01*
X86214286Y-40700057D02*
X86261905Y-40652438D01*
X86261905Y-40652438D02*
X86357143Y-40604819D01*
X86357143Y-40604819D02*
X86595238Y-40604819D01*
X86595238Y-40604819D02*
X86690476Y-40652438D01*
X86690476Y-40652438D02*
X86738095Y-40700057D01*
X86738095Y-40700057D02*
X86785714Y-40795295D01*
X86785714Y-40795295D02*
X86785714Y-40890533D01*
X86785714Y-40890533D02*
X86738095Y-41033390D01*
X86738095Y-41033390D02*
X86166667Y-41604819D01*
X86166667Y-41604819D02*
X86785714Y-41604819D01*
X86404761Y-31150057D02*
X86309523Y-31102438D01*
X86309523Y-31102438D02*
X86214285Y-31007200D01*
X86214285Y-31007200D02*
X86071428Y-30864342D01*
X86071428Y-30864342D02*
X85976190Y-30816723D01*
X85976190Y-30816723D02*
X85880952Y-30816723D01*
X85928571Y-31054819D02*
X85833333Y-31007200D01*
X85833333Y-31007200D02*
X85738095Y-30911961D01*
X85738095Y-30911961D02*
X85690476Y-30721485D01*
X85690476Y-30721485D02*
X85690476Y-30388152D01*
X85690476Y-30388152D02*
X85738095Y-30197676D01*
X85738095Y-30197676D02*
X85833333Y-30102438D01*
X85833333Y-30102438D02*
X85928571Y-30054819D01*
X85928571Y-30054819D02*
X86119047Y-30054819D01*
X86119047Y-30054819D02*
X86214285Y-30102438D01*
X86214285Y-30102438D02*
X86309523Y-30197676D01*
X86309523Y-30197676D02*
X86357142Y-30388152D01*
X86357142Y-30388152D02*
X86357142Y-30721485D01*
X86357142Y-30721485D02*
X86309523Y-30911961D01*
X86309523Y-30911961D02*
X86214285Y-31007200D01*
X86214285Y-31007200D02*
X86119047Y-31054819D01*
X86119047Y-31054819D02*
X85928571Y-31054819D01*
X87309523Y-31054819D02*
X86738095Y-31054819D01*
X87023809Y-31054819D02*
X87023809Y-30054819D01*
X87023809Y-30054819D02*
X86928571Y-30197676D01*
X86928571Y-30197676D02*
X86833333Y-30292914D01*
X86833333Y-30292914D02*
X86738095Y-30340533D01*
D11*
X68733333Y-21464895D02*
X68733333Y-22036323D01*
X68733333Y-22036323D02*
X68695238Y-22150609D01*
X68695238Y-22150609D02*
X68619047Y-22226800D01*
X68619047Y-22226800D02*
X68504762Y-22264895D01*
X68504762Y-22264895D02*
X68428571Y-22264895D01*
X69533333Y-22264895D02*
X69076190Y-22264895D01*
X69304762Y-22264895D02*
X69304762Y-21464895D01*
X69304762Y-21464895D02*
X69228571Y-21579180D01*
X69228571Y-21579180D02*
X69152381Y-21655371D01*
X69152381Y-21655371D02*
X69076190Y-21693466D01*
X67028571Y-22714895D02*
X66571428Y-22714895D01*
X66800000Y-22714895D02*
X66800000Y-21914895D01*
X66800000Y-21914895D02*
X66723809Y-22029180D01*
X66723809Y-22029180D02*
X66647619Y-22105371D01*
X66647619Y-22105371D02*
X66571428Y-22143466D01*
D10*
X77833333Y-9524819D02*
X77500000Y-9048628D01*
X77261905Y-9524819D02*
X77261905Y-8524819D01*
X77261905Y-8524819D02*
X77642857Y-8524819D01*
X77642857Y-8524819D02*
X77738095Y-8572438D01*
X77738095Y-8572438D02*
X77785714Y-8620057D01*
X77785714Y-8620057D02*
X77833333Y-8715295D01*
X77833333Y-8715295D02*
X77833333Y-8858152D01*
X77833333Y-8858152D02*
X77785714Y-8953390D01*
X77785714Y-8953390D02*
X77738095Y-9001009D01*
X77738095Y-9001009D02*
X77642857Y-9048628D01*
X77642857Y-9048628D02*
X77261905Y-9048628D01*
X78214286Y-8620057D02*
X78261905Y-8572438D01*
X78261905Y-8572438D02*
X78357143Y-8524819D01*
X78357143Y-8524819D02*
X78595238Y-8524819D01*
X78595238Y-8524819D02*
X78690476Y-8572438D01*
X78690476Y-8572438D02*
X78738095Y-8620057D01*
X78738095Y-8620057D02*
X78785714Y-8715295D01*
X78785714Y-8715295D02*
X78785714Y-8810533D01*
X78785714Y-8810533D02*
X78738095Y-8953390D01*
X78738095Y-8953390D02*
X78166667Y-9524819D01*
X78166667Y-9524819D02*
X78785714Y-9524819D01*
X52833333Y-20259580D02*
X52785714Y-20307200D01*
X52785714Y-20307200D02*
X52642857Y-20354819D01*
X52642857Y-20354819D02*
X52547619Y-20354819D01*
X52547619Y-20354819D02*
X52404762Y-20307200D01*
X52404762Y-20307200D02*
X52309524Y-20211961D01*
X52309524Y-20211961D02*
X52261905Y-20116723D01*
X52261905Y-20116723D02*
X52214286Y-19926247D01*
X52214286Y-19926247D02*
X52214286Y-19783390D01*
X52214286Y-19783390D02*
X52261905Y-19592914D01*
X52261905Y-19592914D02*
X52309524Y-19497676D01*
X52309524Y-19497676D02*
X52404762Y-19402438D01*
X52404762Y-19402438D02*
X52547619Y-19354819D01*
X52547619Y-19354819D02*
X52642857Y-19354819D01*
X52642857Y-19354819D02*
X52785714Y-19402438D01*
X52785714Y-19402438D02*
X52833333Y-19450057D01*
X53166667Y-19354819D02*
X53785714Y-19354819D01*
X53785714Y-19354819D02*
X53452381Y-19735771D01*
X53452381Y-19735771D02*
X53595238Y-19735771D01*
X53595238Y-19735771D02*
X53690476Y-19783390D01*
X53690476Y-19783390D02*
X53738095Y-19831009D01*
X53738095Y-19831009D02*
X53785714Y-19926247D01*
X53785714Y-19926247D02*
X53785714Y-20164342D01*
X53785714Y-20164342D02*
X53738095Y-20259580D01*
X53738095Y-20259580D02*
X53690476Y-20307200D01*
X53690476Y-20307200D02*
X53595238Y-20354819D01*
X53595238Y-20354819D02*
X53309524Y-20354819D01*
X53309524Y-20354819D02*
X53214286Y-20307200D01*
X53214286Y-20307200D02*
X53166667Y-20259580D01*
D11*
X74295237Y-25045847D02*
X74409523Y-25083942D01*
X74409523Y-25083942D02*
X74447618Y-25122038D01*
X74447618Y-25122038D02*
X74485714Y-25198228D01*
X74485714Y-25198228D02*
X74485714Y-25312514D01*
X74485714Y-25312514D02*
X74447618Y-25388704D01*
X74447618Y-25388704D02*
X74409523Y-25426800D01*
X74409523Y-25426800D02*
X74333333Y-25464895D01*
X74333333Y-25464895D02*
X74028571Y-25464895D01*
X74028571Y-25464895D02*
X74028571Y-24664895D01*
X74028571Y-24664895D02*
X74295237Y-24664895D01*
X74295237Y-24664895D02*
X74371428Y-24702990D01*
X74371428Y-24702990D02*
X74409523Y-24741085D01*
X74409523Y-24741085D02*
X74447618Y-24817276D01*
X74447618Y-24817276D02*
X74447618Y-24893466D01*
X74447618Y-24893466D02*
X74409523Y-24969657D01*
X74409523Y-24969657D02*
X74371428Y-25007752D01*
X74371428Y-25007752D02*
X74295237Y-25045847D01*
X74295237Y-25045847D02*
X74028571Y-25045847D01*
X74752380Y-24664895D02*
X75285714Y-24664895D01*
X75285714Y-24664895D02*
X74752380Y-25464895D01*
X74752380Y-25464895D02*
X75285714Y-25464895D01*
X76009523Y-25464895D02*
X75552380Y-25464895D01*
X75780952Y-25464895D02*
X75780952Y-24664895D01*
X75780952Y-24664895D02*
X75704761Y-24779180D01*
X75704761Y-24779180D02*
X75628571Y-24855371D01*
X75628571Y-24855371D02*
X75552380Y-24893466D01*
D12*
%TO.C,R1*%
X80762742Y-7477500D02*
X81237258Y-7477500D01*
X80762742Y-8522500D02*
X81237258Y-8522500D01*
%TO.C,C2*%
X63359420Y-19990000D02*
X63640580Y-19990000D01*
X63359420Y-21010000D02*
X63640580Y-21010000D01*
D13*
%TO.C,U1*%
X62750000Y-2750000D02*
X75250000Y-2750000D01*
X62750000Y-8180000D02*
X62750000Y-2750000D01*
X62750000Y-17250000D02*
X62750000Y-15820000D01*
X64430000Y-17250000D02*
X62750000Y-17250000D01*
X75250000Y-2750000D02*
X75250000Y-8180000D01*
X75250000Y-15820000D02*
X75250000Y-17250000D01*
X75250000Y-17250000D02*
X73570000Y-17250000D01*
D14*
X61850000Y-9000000D02*
G75*
G02*
X61650000Y-9000000I-100000J0D01*
G01*
X61650000Y-9000000D02*
G75*
G02*
X61850000Y-9000000I100000J0D01*
G01*
D12*
%TO.C,D1*%
X82715000Y-7265000D02*
X82715000Y-8735000D01*
X82715000Y-8735000D02*
X85000000Y-8735000D01*
X85000000Y-7265000D02*
X82715000Y-7265000D01*
%TO.C,S1*%
X3550000Y-6930000D02*
X3550000Y-7720000D01*
X4150000Y-8730000D02*
X9850000Y-8730000D01*
X5400000Y-5880000D02*
X7100000Y-5880000D01*
X5600000Y-8730000D02*
X5600000Y-10020000D01*
X5600000Y-10020000D02*
X5800000Y-10230000D01*
X5800000Y-10230000D02*
X6700000Y-10230000D01*
X6900000Y-10020000D02*
X6700000Y-10230000D01*
X6900000Y-10020000D02*
X6900000Y-8730000D01*
X8400000Y-5880000D02*
X8600000Y-5880000D01*
X10450000Y-7720000D02*
X10450000Y-6930000D01*
%TO.C,R3*%
X87877500Y-38037258D02*
X87877500Y-37562742D01*
X88922500Y-38037258D02*
X88922500Y-37562742D01*
%TO.C,C1*%
X57738748Y-21465000D02*
X58261252Y-21465000D01*
X57738748Y-22935000D02*
X58261252Y-22935000D01*
%TO.C,D2*%
X84390000Y-42150000D02*
X84390000Y-43850000D01*
X84390000Y-42150000D02*
X87050000Y-42150000D01*
X84390000Y-43850000D02*
X87050000Y-43850000D01*
%TO.C,Q1*%
X86500000Y-31440000D02*
X85850000Y-31440000D01*
X86500000Y-31440000D02*
X87150000Y-31440000D01*
X86500000Y-34560000D02*
X85850000Y-34560000D01*
X86500000Y-34560000D02*
X87150000Y-34560000D01*
X85337500Y-31490000D02*
X85097500Y-31160000D01*
X85577500Y-31160000D01*
X85337500Y-31490000D01*
G36*
X85337500Y-31490000D02*
G01*
X85097500Y-31160000D01*
X85577500Y-31160000D01*
X85337500Y-31490000D01*
G37*
%TO.C,R2*%
X77762742Y-9977500D02*
X78237258Y-9977500D01*
X77762742Y-11022500D02*
X78237258Y-11022500D01*
%TO.C,C3*%
X52288748Y-20840000D02*
X53711252Y-20840000D01*
X52288748Y-23560000D02*
X53711252Y-23560000D01*
%TD*%
M02*
