M48
; DRILL file {KiCad 9.0.3} date 2026-06-28T23:08:01-0600
; FORMAT={-:-/ absolute / metric / decimal}
; #@! TF.CreationDate,2026-06-28T23:08:01-06:00
; #@! TF.GenerationSoftware,Kicad,Pcbnew,9.0.3
; #@! TF.FileFunction,MixedPlating,1,2
FMAT,2
METRIC
; #@! TA.AperFunction,Plated,PTH,ViaDrill
T1C0.350
; #@! TA.AperFunction,Plated,PTH,ComponentDrill
T2C1.200
; #@! TA.AperFunction,NonPlated,NPTH,ComponentDrill
T3C0.900
; #@! TA.AperFunction,NonPlated,NPTH,ComponentDrill
T4C2.000
%
G90
G05
T1
X21.635Y-12.0
X29.0Y-8.0
X46.82Y-30.0
X53.0Y-19.8
X54.475Y-24.2
X58.0Y-19.8
X58.95Y-24.2
X61.5Y-13.5
X64.275Y-22.2
X65.25Y-15.6
X66.75Y-18.9
X72.75Y-17.8
X75.0Y-27.5
X80.175Y-8.0
X87.05Y-43.0
X88.0Y-34.5
T2
X9.18Y-26.0
X46.82Y-26.0
T3
X5.5Y-7.33
X8.5Y-7.33
T4
X9.18Y-17.66
M30
