%TF.GenerationSoftware,KiCad,Pcbnew,9.0.3*%
%TF.CreationDate,2026-09-22T23:27:02-06:00*%
%TF.ProjectId,SafeGuardBuzzer_v1,53616665-4775-4617-9264-42757a7a6572,rev?*%
%TF.SameCoordinates,Original*%
%TF.FileFunction,Paste,Top*%
%TF.FilePolarity,Positive*%
%FSLAX46Y46*%
G04 Gerber Fmt 4.6, Leading zero omitted, Abs format (unit mm)*
G04 Created by KiCad (PCBNEW 9.0.3) date 2026-09-22 23:27:02*
%MOMM*%
%LPD*%
G01*
G04 APERTURE LIST*
G04 Aperture macros list*
%AMRoundRect*
0 Rectangle with rounded corners*
0 $1 Rounding radius*
0 $2 $3 $4 $5 $6 $7 $8 $9 X,Y pos of 4 corners*
0 Add a 4 corners polygon primitive as box body*
4,1,4,$2,$3,$4,$5,$6,$7,$8,$9,$2,$3,0*
0 Add four circle primitives for the rounded corners*
1,1,$1+$1,$2,$3*
1,1,$1+$1,$4,$5*
1,1,$1+$1,$6,$7*
1,1,$1+$1,$8,$9*
0 Add four rect primitives between the rounded corners*
20,1,$1+$1,$2,$3,$4,$5,0*
20,1,$1+$1,$4,$5,$6,$7,0*
20,1,$1+$1,$6,$7,$8,$9,0*
20,1,$1+$1,$8,$9,$2,$3,0*%
G04 Aperture macros list end*
%ADD10C,0.010000*%
%ADD11RoundRect,0.200000X-0.200000X-0.275000X0.200000X-0.275000X0.200000X0.275000X-0.200000X0.275000X0*%
%ADD12RoundRect,0.225000X-0.225000X-0.250000X0.225000X-0.250000X0.225000X0.250000X-0.225000X0.250000X0*%
%ADD13C,1.000000*%
%ADD14RoundRect,0.218750X-0.218750X-0.256250X0.218750X-0.256250X0.218750X0.256250X-0.218750X0.256250X0*%
%ADD15R,1.000000X0.800000*%
%ADD16R,0.700000X1.500000*%
%ADD17RoundRect,0.260000X-0.490000X-0.390000X0.490000X-0.390000X0.490000X0.390000X-0.490000X0.390000X0*%
%ADD18RoundRect,0.200000X0.275000X-0.200000X0.275000X0.200000X-0.275000X0.200000X-0.275000X-0.200000X0*%
%ADD19RoundRect,0.250000X-0.250000X-0.475000X0.250000X-0.475000X0.250000X0.475000X-0.250000X0.475000X0*%
%ADD20RoundRect,0.112500X-0.187500X-0.112500X0.187500X-0.112500X0.187500X0.112500X-0.187500X0.112500X0*%
%ADD21RoundRect,0.150000X-0.587500X-0.150000X0.587500X-0.150000X0.587500X0.150000X-0.587500X0.150000X0*%
%ADD22R,2.700000X1.635000*%
%ADD23R,2.500000X4.000000*%
%ADD24R,2.600000X7.600000*%
G04 APERTURE END LIST*
D10*
%TO.C,U1*%
X48850000Y-10000000D02*
X48250000Y-10000000D01*
X48224000Y-9999000D01*
X48198000Y-9997000D01*
X48172000Y-9994000D01*
X48146000Y-9989000D01*
X48121000Y-9983000D01*
X48095000Y-9976000D01*
X48071000Y-9967000D01*
X48047000Y-9957000D01*
X48023000Y-9946000D01*
X48000000Y-9933000D01*
X47978000Y-9919000D01*
X47956000Y-9905000D01*
X47935000Y-9889000D01*
X47915000Y-9872000D01*
X47896000Y-9854000D01*
X47878000Y-9835000D01*
X47861000Y-9815000D01*
X47845000Y-9794000D01*
X47831000Y-9772000D01*
X47817000Y-9750000D01*
X47804000Y-9727000D01*
X47793000Y-9703000D01*
X47783000Y-9679000D01*
X47774000Y-9655000D01*
X47767000Y-9629000D01*
X47761000Y-9604000D01*
X47756000Y-9578000D01*
X47753000Y-9552000D01*
X47751000Y-9526000D01*
X47750000Y-9500000D01*
X47751000Y-9474000D01*
X47753000Y-9448000D01*
X47756000Y-9422000D01*
X47761000Y-9396000D01*
X47767000Y-9371000D01*
X47774000Y-9345000D01*
X47783000Y-9321000D01*
X47793000Y-9297000D01*
X47804000Y-9273000D01*
X47817000Y-9250000D01*
X47831000Y-9228000D01*
X47845000Y-9206000D01*
X47861000Y-9185000D01*
X47878000Y-9165000D01*
X47896000Y-9146000D01*
X47915000Y-9128000D01*
X47935000Y-9111000D01*
X47956000Y-9095000D01*
X47978000Y-9081000D01*
X48000000Y-9067000D01*
X48023000Y-9054000D01*
X48047000Y-9043000D01*
X48071000Y-9033000D01*
X48095000Y-9024000D01*
X48121000Y-9017000D01*
X48146000Y-9011000D01*
X48172000Y-9006000D01*
X48198000Y-9003000D01*
X48224000Y-9001000D01*
X48250000Y-9000000D01*
X48850000Y-9000000D01*
X48850000Y-10000000D01*
G36*
X48850000Y-10000000D02*
G01*
X48250000Y-10000000D01*
X48224000Y-9999000D01*
X48198000Y-9997000D01*
X48172000Y-9994000D01*
X48146000Y-9989000D01*
X48121000Y-9983000D01*
X48095000Y-9976000D01*
X48071000Y-9967000D01*
X48047000Y-9957000D01*
X48023000Y-9946000D01*
X48000000Y-9933000D01*
X47978000Y-9919000D01*
X47956000Y-9905000D01*
X47935000Y-9889000D01*
X47915000Y-9872000D01*
X47896000Y-9854000D01*
X47878000Y-9835000D01*
X47861000Y-9815000D01*
X47845000Y-9794000D01*
X47831000Y-9772000D01*
X47817000Y-9750000D01*
X47804000Y-9727000D01*
X47793000Y-9703000D01*
X47783000Y-9679000D01*
X47774000Y-9655000D01*
X47767000Y-9629000D01*
X47761000Y-9604000D01*
X47756000Y-9578000D01*
X47753000Y-9552000D01*
X47751000Y-9526000D01*
X47750000Y-9500000D01*
X47751000Y-9474000D01*
X47753000Y-9448000D01*
X47756000Y-9422000D01*
X47761000Y-9396000D01*
X47767000Y-9371000D01*
X47774000Y-9345000D01*
X47783000Y-9321000D01*
X47793000Y-9297000D01*
X47804000Y-9273000D01*
X47817000Y-9250000D01*
X47831000Y-9228000D01*
X47845000Y-9206000D01*
X47861000Y-9185000D01*
X47878000Y-9165000D01*
X47896000Y-9146000D01*
X47915000Y-9128000D01*
X47935000Y-9111000D01*
X47956000Y-9095000D01*
X47978000Y-9081000D01*
X48000000Y-9067000D01*
X48023000Y-9054000D01*
X48047000Y-9043000D01*
X48071000Y-9033000D01*
X48095000Y-9024000D01*
X48121000Y-9017000D01*
X48146000Y-9011000D01*
X48172000Y-9006000D01*
X48198000Y-9003000D01*
X48224000Y-9001000D01*
X48250000Y-9000000D01*
X48850000Y-9000000D01*
X48850000Y-10000000D01*
G37*
X49750000Y-11500000D02*
X48250000Y-11500000D01*
X48224000Y-11499000D01*
X48198000Y-11497000D01*
X48172000Y-11494000D01*
X48146000Y-11489000D01*
X48121000Y-11483000D01*
X48095000Y-11476000D01*
X48071000Y-11467000D01*
X48047000Y-11457000D01*
X48023000Y-11446000D01*
X48000000Y-11433000D01*
X47978000Y-11419000D01*
X47956000Y-11405000D01*
X47935000Y-11389000D01*
X47915000Y-11372000D01*
X47896000Y-11354000D01*
X47878000Y-11335000D01*
X47861000Y-11315000D01*
X47845000Y-11294000D01*
X47831000Y-11272000D01*
X47817000Y-11250000D01*
X47804000Y-11227000D01*
X47793000Y-11203000D01*
X47783000Y-11179000D01*
X47774000Y-11155000D01*
X47767000Y-11129000D01*
X47761000Y-11104000D01*
X47756000Y-11078000D01*
X47753000Y-11052000D01*
X47751000Y-11026000D01*
X47750000Y-11000000D01*
X47751000Y-10974000D01*
X47753000Y-10948000D01*
X47756000Y-10922000D01*
X47761000Y-10896000D01*
X47767000Y-10871000D01*
X47774000Y-10845000D01*
X47783000Y-10821000D01*
X47793000Y-10797000D01*
X47804000Y-10773000D01*
X47817000Y-10750000D01*
X47831000Y-10728000D01*
X47845000Y-10706000D01*
X47861000Y-10685000D01*
X47878000Y-10665000D01*
X47896000Y-10646000D01*
X47915000Y-10628000D01*
X47935000Y-10611000D01*
X47956000Y-10595000D01*
X47978000Y-10581000D01*
X48000000Y-10567000D01*
X48023000Y-10554000D01*
X48047000Y-10543000D01*
X48071000Y-10533000D01*
X48095000Y-10524000D01*
X48121000Y-10517000D01*
X48146000Y-10511000D01*
X48172000Y-10506000D01*
X48198000Y-10503000D01*
X48224000Y-10501000D01*
X48250000Y-10500000D01*
X49750000Y-10500000D01*
X49750000Y-11500000D01*
G36*
X49750000Y-11500000D02*
G01*
X48250000Y-11500000D01*
X48224000Y-11499000D01*
X48198000Y-11497000D01*
X48172000Y-11494000D01*
X48146000Y-11489000D01*
X48121000Y-11483000D01*
X48095000Y-11476000D01*
X48071000Y-11467000D01*
X48047000Y-11457000D01*
X48023000Y-11446000D01*
X48000000Y-11433000D01*
X47978000Y-11419000D01*
X47956000Y-11405000D01*
X47935000Y-11389000D01*
X47915000Y-11372000D01*
X47896000Y-11354000D01*
X47878000Y-11335000D01*
X47861000Y-11315000D01*
X47845000Y-11294000D01*
X47831000Y-11272000D01*
X47817000Y-11250000D01*
X47804000Y-11227000D01*
X47793000Y-11203000D01*
X47783000Y-11179000D01*
X47774000Y-11155000D01*
X47767000Y-11129000D01*
X47761000Y-11104000D01*
X47756000Y-11078000D01*
X47753000Y-11052000D01*
X47751000Y-11026000D01*
X47750000Y-11000000D01*
X47751000Y-10974000D01*
X47753000Y-10948000D01*
X47756000Y-10922000D01*
X47761000Y-10896000D01*
X47767000Y-10871000D01*
X47774000Y-10845000D01*
X47783000Y-10821000D01*
X47793000Y-10797000D01*
X47804000Y-10773000D01*
X47817000Y-10750000D01*
X47831000Y-10728000D01*
X47845000Y-10706000D01*
X47861000Y-10685000D01*
X47878000Y-10665000D01*
X47896000Y-10646000D01*
X47915000Y-10628000D01*
X47935000Y-10611000D01*
X47956000Y-10595000D01*
X47978000Y-10581000D01*
X48000000Y-10567000D01*
X48023000Y-10554000D01*
X48047000Y-10543000D01*
X48071000Y-10533000D01*
X48095000Y-10524000D01*
X48121000Y-10517000D01*
X48146000Y-10511000D01*
X48172000Y-10506000D01*
X48198000Y-10503000D01*
X48224000Y-10501000D01*
X48250000Y-10500000D01*
X49750000Y-10500000D01*
X49750000Y-11500000D01*
G37*
X49750000Y-13000000D02*
X48250000Y-13000000D01*
X48224000Y-12999000D01*
X48198000Y-12997000D01*
X48172000Y-12994000D01*
X48146000Y-12989000D01*
X48121000Y-12983000D01*
X48095000Y-12976000D01*
X48071000Y-12967000D01*
X48047000Y-12957000D01*
X48023000Y-12946000D01*
X48000000Y-12933000D01*
X47978000Y-12919000D01*
X47956000Y-12905000D01*
X47935000Y-12889000D01*
X47915000Y-12872000D01*
X47896000Y-12854000D01*
X47878000Y-12835000D01*
X47861000Y-12815000D01*
X47845000Y-12794000D01*
X47831000Y-12772000D01*
X47817000Y-12750000D01*
X47804000Y-12727000D01*
X47793000Y-12703000D01*
X47783000Y-12679000D01*
X47774000Y-12655000D01*
X47767000Y-12629000D01*
X47761000Y-12604000D01*
X47756000Y-12578000D01*
X47753000Y-12552000D01*
X47751000Y-12526000D01*
X47750000Y-12500000D01*
X47751000Y-12474000D01*
X47753000Y-12448000D01*
X47756000Y-12422000D01*
X47761000Y-12396000D01*
X47767000Y-12371000D01*
X47774000Y-12345000D01*
X47783000Y-12321000D01*
X47793000Y-12297000D01*
X47804000Y-12273000D01*
X47817000Y-12250000D01*
X47831000Y-12228000D01*
X47845000Y-12206000D01*
X47861000Y-12185000D01*
X47878000Y-12165000D01*
X47896000Y-12146000D01*
X47915000Y-12128000D01*
X47935000Y-12111000D01*
X47956000Y-12095000D01*
X47978000Y-12081000D01*
X48000000Y-12067000D01*
X48023000Y-12054000D01*
X48047000Y-12043000D01*
X48071000Y-12033000D01*
X48095000Y-12024000D01*
X48121000Y-12017000D01*
X48146000Y-12011000D01*
X48172000Y-12006000D01*
X48198000Y-12003000D01*
X48224000Y-12001000D01*
X48250000Y-12000000D01*
X49750000Y-12000000D01*
X49750000Y-13000000D01*
G36*
X49750000Y-13000000D02*
G01*
X48250000Y-13000000D01*
X48224000Y-12999000D01*
X48198000Y-12997000D01*
X48172000Y-12994000D01*
X48146000Y-12989000D01*
X48121000Y-12983000D01*
X48095000Y-12976000D01*
X48071000Y-12967000D01*
X48047000Y-12957000D01*
X48023000Y-12946000D01*
X48000000Y-12933000D01*
X47978000Y-12919000D01*
X47956000Y-12905000D01*
X47935000Y-12889000D01*
X47915000Y-12872000D01*
X47896000Y-12854000D01*
X47878000Y-12835000D01*
X47861000Y-12815000D01*
X47845000Y-12794000D01*
X47831000Y-12772000D01*
X47817000Y-12750000D01*
X47804000Y-12727000D01*
X47793000Y-12703000D01*
X47783000Y-12679000D01*
X47774000Y-12655000D01*
X47767000Y-12629000D01*
X47761000Y-12604000D01*
X47756000Y-12578000D01*
X47753000Y-12552000D01*
X47751000Y-12526000D01*
X47750000Y-12500000D01*
X47751000Y-12474000D01*
X47753000Y-12448000D01*
X47756000Y-12422000D01*
X47761000Y-12396000D01*
X47767000Y-12371000D01*
X47774000Y-12345000D01*
X47783000Y-12321000D01*
X47793000Y-12297000D01*
X47804000Y-12273000D01*
X47817000Y-12250000D01*
X47831000Y-12228000D01*
X47845000Y-12206000D01*
X47861000Y-12185000D01*
X47878000Y-12165000D01*
X47896000Y-12146000D01*
X47915000Y-12128000D01*
X47935000Y-12111000D01*
X47956000Y-12095000D01*
X47978000Y-12081000D01*
X48000000Y-12067000D01*
X48023000Y-12054000D01*
X48047000Y-12043000D01*
X48071000Y-12033000D01*
X48095000Y-12024000D01*
X48121000Y-12017000D01*
X48146000Y-12011000D01*
X48172000Y-12006000D01*
X48198000Y-12003000D01*
X48224000Y-12001000D01*
X48250000Y-12000000D01*
X49750000Y-12000000D01*
X49750000Y-13000000D01*
G37*
X49750000Y-14500000D02*
X48250000Y-14500000D01*
X48224000Y-14499000D01*
X48198000Y-14497000D01*
X48172000Y-14494000D01*
X48146000Y-14489000D01*
X48121000Y-14483000D01*
X48095000Y-14476000D01*
X48071000Y-14467000D01*
X48047000Y-14457000D01*
X48023000Y-14446000D01*
X48000000Y-14433000D01*
X47978000Y-14419000D01*
X47956000Y-14405000D01*
X47935000Y-14389000D01*
X47915000Y-14372000D01*
X47896000Y-14354000D01*
X47878000Y-14335000D01*
X47861000Y-14315000D01*
X47845000Y-14294000D01*
X47831000Y-14272000D01*
X47817000Y-14250000D01*
X47804000Y-14227000D01*
X47793000Y-14203000D01*
X47783000Y-14179000D01*
X47774000Y-14155000D01*
X47767000Y-14129000D01*
X47761000Y-14104000D01*
X47751000Y-14078000D01*
X47751000Y-14052000D01*
X47751000Y-14026000D01*
X47750000Y-14000000D01*
X47751000Y-13974000D01*
X47753000Y-13948000D01*
X47756000Y-13922000D01*
X47761000Y-13896000D01*
X47767000Y-13871000D01*
X47774000Y-13845000D01*
X47783000Y-13821000D01*
X47793000Y-13797000D01*
X47804000Y-13773000D01*
X47817000Y-13750000D01*
X47831000Y-13728000D01*
X47845000Y-13706000D01*
X47861000Y-13685000D01*
X47878000Y-13665000D01*
X47896000Y-13646000D01*
X47915000Y-13628000D01*
X47935000Y-13611000D01*
X47956000Y-13595000D01*
X47978000Y-13581000D01*
X48000000Y-13567000D01*
X48023000Y-13554000D01*
X48047000Y-13543000D01*
X48071000Y-13533000D01*
X48095000Y-13524000D01*
X48121000Y-13517000D01*
X48146000Y-13511000D01*
X48172000Y-13506000D01*
X48198000Y-13503000D01*
X48224000Y-13501000D01*
X48250000Y-13500000D01*
X49750000Y-13500000D01*
X49750000Y-14500000D01*
G36*
X49750000Y-14500000D02*
G01*
X48250000Y-14500000D01*
X48224000Y-14499000D01*
X48198000Y-14497000D01*
X48172000Y-14494000D01*
X48146000Y-14489000D01*
X48121000Y-14483000D01*
X48095000Y-14476000D01*
X48071000Y-14467000D01*
X48047000Y-14457000D01*
X48023000Y-14446000D01*
X48000000Y-14433000D01*
X47978000Y-14419000D01*
X47956000Y-14405000D01*
X47935000Y-14389000D01*
X47915000Y-14372000D01*
X47896000Y-14354000D01*
X47878000Y-14335000D01*
X47861000Y-14315000D01*
X47845000Y-14294000D01*
X47831000Y-14272000D01*
X47817000Y-14250000D01*
X47804000Y-14227000D01*
X47793000Y-14203000D01*
X47783000Y-14179000D01*
X47774000Y-14155000D01*
X47767000Y-14129000D01*
X47761000Y-14104000D01*
X47751000Y-14078000D01*
X47751000Y-14052000D01*
X47751000Y-14026000D01*
X47750000Y-14000000D01*
X47751000Y-13974000D01*
X47753000Y-13948000D01*
X47756000Y-13922000D01*
X47761000Y-13896000D01*
X47767000Y-13871000D01*
X47774000Y-13845000D01*
X47783000Y-13821000D01*
X47793000Y-13797000D01*
X47804000Y-13773000D01*
X47817000Y-13750000D01*
X47831000Y-13728000D01*
X47845000Y-13706000D01*
X47861000Y-13685000D01*
X47878000Y-13665000D01*
X47896000Y-13646000D01*
X47915000Y-13628000D01*
X47935000Y-13611000D01*
X47956000Y-13595000D01*
X47978000Y-13581000D01*
X48000000Y-13567000D01*
X48023000Y-13554000D01*
X48047000Y-13543000D01*
X48071000Y-13533000D01*
X48095000Y-13524000D01*
X48121000Y-13517000D01*
X48146000Y-13511000D01*
X48172000Y-13506000D01*
X48198000Y-13503000D01*
X48224000Y-13501000D01*
X48250000Y-13500000D01*
X49750000Y-13500000D01*
X49750000Y-14500000D01*
G37*
X49750000Y-16000000D02*
X48250000Y-16000000D01*
X48224000Y-15999000D01*
X48198000Y-15997000D01*
X48172000Y-15994000D01*
X48146000Y-15989000D01*
X48121000Y-15983000D01*
X48095000Y-15976000D01*
X48071000Y-15967000D01*
X48047000Y-15957000D01*
X48023000Y-15946000D01*
X48000000Y-15933000D01*
X47978000Y-15919000D01*
X47956000Y-15905000D01*
X47935000Y-15889000D01*
X47915000Y-15872000D01*
X47896000Y-15854000D01*
X47878000Y-15835000D01*
X47861000Y-15815000D01*
X47845000Y-15794000D01*
X47831000Y-15772000D01*
X47817000Y-15750000D01*
X47804000Y-15727000D01*
X47793000Y-15703000D01*
X47783000Y-15679000D01*
X47774000Y-15655000D01*
X47767000Y-15629000D01*
X47761000Y-15604000D01*
X47756000Y-15578000D01*
X47753000Y-15552000D01*
X47751000Y-15526000D01*
X47750000Y-15500000D01*
X47751000Y-15474000D01*
X47753000Y-15448000D01*
X47756000Y-15422000D01*
X47761000Y-15396000D01*
X47767000Y-15371000D01*
X47774000Y-15345000D01*
X47783000Y-15321000D01*
X47793000Y-15297000D01*
X47804000Y-15273000D01*
X47817000Y-15250000D01*
X47831000Y-15228000D01*
X47845000Y-15206000D01*
X47861000Y-15185000D01*
X47878000Y-15165000D01*
X47896000Y-15146000D01*
X47915000Y-15128000D01*
X47935000Y-15111000D01*
X47956000Y-15095000D01*
X47978000Y-15081000D01*
X48000000Y-15067000D01*
X48023000Y-15054000D01*
X48047000Y-15043000D01*
X48071000Y-15033000D01*
X48095000Y-15024000D01*
X48121000Y-15017000D01*
X48146000Y-15011000D01*
X48172000Y-15006000D01*
X48198000Y-15003000D01*
X48224000Y-15001000D01*
X48250000Y-15000000D01*
X49750000Y-15000000D01*
X49750000Y-16000000D01*
G36*
X49750000Y-16000000D02*
G01*
X48250000Y-16000000D01*
X48224000Y-15999000D01*
X48198000Y-15997000D01*
X48172000Y-15994000D01*
X48146000Y-15989000D01*
X48121000Y-15983000D01*
X48095000Y-15976000D01*
X48071000Y-15967000D01*
X48047000Y-15957000D01*
X48023000Y-15946000D01*
X48000000Y-15933000D01*
X47978000Y-15919000D01*
X47956000Y-15905000D01*
X47935000Y-15889000D01*
X47915000Y-15872000D01*
X47896000Y-15854000D01*
X47878000Y-15835000D01*
X47861000Y-15815000D01*
X47845000Y-15794000D01*
X47831000Y-15772000D01*
X47817000Y-15750000D01*
X47804000Y-15727000D01*
X47793000Y-15703000D01*
X47783000Y-15679000D01*
X47774000Y-15655000D01*
X47767000Y-15629000D01*
X47761000Y-15604000D01*
X47756000Y-15578000D01*
X47753000Y-15552000D01*
X47751000Y-15526000D01*
X47750000Y-15500000D01*
X47751000Y-15474000D01*
X47753000Y-15448000D01*
X47756000Y-15422000D01*
X47761000Y-15396000D01*
X47767000Y-15371000D01*
X47774000Y-15345000D01*
X47783000Y-15321000D01*
X47793000Y-15297000D01*
X47804000Y-15273000D01*
X47817000Y-15250000D01*
X47831000Y-15228000D01*
X47845000Y-15206000D01*
X47861000Y-15185000D01*
X47878000Y-15165000D01*
X47896000Y-15146000D01*
X47915000Y-15128000D01*
X47935000Y-15111000D01*
X47956000Y-15095000D01*
X47978000Y-15081000D01*
X48000000Y-15067000D01*
X48023000Y-15054000D01*
X48047000Y-15043000D01*
X48071000Y-15033000D01*
X48095000Y-15024000D01*
X48121000Y-15017000D01*
X48146000Y-15011000D01*
X48172000Y-15006000D01*
X48198000Y-15003000D01*
X48224000Y-15001000D01*
X48250000Y-15000000D01*
X49750000Y-15000000D01*
X49750000Y-16000000D01*
G37*
X51250000Y-17750000D02*
X51249000Y-17776000D01*
X51247000Y-17802000D01*
X51244000Y-17828000D01*
X51239000Y-17854000D01*
X51233000Y-17879000D01*
X51226000Y-17905000D01*
X51217000Y-17929000D01*
X51207000Y-17953000D01*
X51196000Y-17977000D01*
X51183000Y-18000000D01*
X51169000Y-18022000D01*
X51155000Y-18044000D01*
X51139000Y-18065000D01*
X51122000Y-18085000D01*
X51104000Y-18104000D01*
X51085000Y-18122000D01*
X51065000Y-18139000D01*
X51044000Y-18155000D01*
X51022000Y-18169000D01*
X51000000Y-18183000D01*
X50977000Y-18196000D01*
X50953000Y-18207000D01*
X50929000Y-18217000D01*
X50905000Y-18226000D01*
X50879000Y-18233000D01*
X50854000Y-18239000D01*
X50828000Y-18244000D01*
X50802000Y-18247000D01*
X50776000Y-18249000D01*
X50750000Y-18250000D01*
X50724000Y-18249000D01*
X50698000Y-18247000D01*
X50672000Y-18244000D01*
X50646000Y-18239000D01*
X50621000Y-18233000D01*
X50595000Y-18226000D01*
X50571000Y-18217000D01*
X50547000Y-18207000D01*
X50523000Y-18196000D01*
X50500000Y-18183000D01*
X50478000Y-18169000D01*
X50456000Y-18155000D01*
X50435000Y-18139000D01*
X50415000Y-18122000D01*
X50396000Y-18104000D01*
X50378000Y-18085000D01*
X50361000Y-18065000D01*
X50345000Y-18044000D01*
X50331000Y-18022000D01*
X50317000Y-18000000D01*
X50304000Y-17977000D01*
X50293000Y-17953000D01*
X50283000Y-17929000D01*
X50274000Y-17905000D01*
X50267000Y-17879000D01*
X50261000Y-17854000D01*
X50256000Y-17828000D01*
X50253000Y-17802000D01*
X50251000Y-17776000D01*
X50250000Y-17750000D01*
X50250000Y-16250000D01*
X51250000Y-16250000D01*
X51250000Y-17750000D01*
G36*
X51250000Y-17750000D02*
G01*
X51249000Y-17776000D01*
X51247000Y-17802000D01*
X51244000Y-17828000D01*
X51239000Y-17854000D01*
X51233000Y-17879000D01*
X51226000Y-17905000D01*
X51217000Y-17929000D01*
X51207000Y-17953000D01*
X51196000Y-17977000D01*
X51183000Y-18000000D01*
X51169000Y-18022000D01*
X51155000Y-18044000D01*
X51139000Y-18065000D01*
X51122000Y-18085000D01*
X51104000Y-18104000D01*
X51085000Y-18122000D01*
X51065000Y-18139000D01*
X51044000Y-18155000D01*
X51022000Y-18169000D01*
X51000000Y-18183000D01*
X50977000Y-18196000D01*
X50953000Y-18207000D01*
X50929000Y-18217000D01*
X50905000Y-18226000D01*
X50879000Y-18233000D01*
X50854000Y-18239000D01*
X50828000Y-18244000D01*
X50802000Y-18247000D01*
X50776000Y-18249000D01*
X50750000Y-18250000D01*
X50724000Y-18249000D01*
X50698000Y-18247000D01*
X50672000Y-18244000D01*
X50646000Y-18239000D01*
X50621000Y-18233000D01*
X50595000Y-18226000D01*
X50571000Y-18217000D01*
X50547000Y-18207000D01*
X50523000Y-18196000D01*
X50500000Y-18183000D01*
X50478000Y-18169000D01*
X50456000Y-18155000D01*
X50435000Y-18139000D01*
X50415000Y-18122000D01*
X50396000Y-18104000D01*
X50378000Y-18085000D01*
X50361000Y-18065000D01*
X50345000Y-18044000D01*
X50331000Y-18022000D01*
X50317000Y-18000000D01*
X50304000Y-17977000D01*
X50293000Y-17953000D01*
X50283000Y-17929000D01*
X50274000Y-17905000D01*
X50267000Y-17879000D01*
X50261000Y-17854000D01*
X50256000Y-17828000D01*
X50253000Y-17802000D01*
X50251000Y-17776000D01*
X50250000Y-17750000D01*
X50250000Y-16250000D01*
X51250000Y-16250000D01*
X51250000Y-17750000D01*
G37*
X52750000Y-17750000D02*
X52749000Y-17776000D01*
X52747000Y-17802000D01*
X52744000Y-17828000D01*
X52739000Y-17854000D01*
X52733000Y-17879000D01*
X52726000Y-17905000D01*
X52717000Y-17929000D01*
X52707000Y-17953000D01*
X52696000Y-17977000D01*
X52683000Y-18000000D01*
X52669000Y-18022000D01*
X52655000Y-18044000D01*
X52639000Y-18065000D01*
X52622000Y-18085000D01*
X52604000Y-18104000D01*
X52585000Y-18122000D01*
X52565000Y-18139000D01*
X52544000Y-18155000D01*
X52522000Y-18169000D01*
X52500000Y-18183000D01*
X52477000Y-18196000D01*
X52453000Y-18207000D01*
X52429000Y-18217000D01*
X52405000Y-18226000D01*
X52379000Y-18233000D01*
X52354000Y-18239000D01*
X52328000Y-18244000D01*
X52302000Y-18247000D01*
X52276000Y-18249000D01*
X52250000Y-18250000D01*
X52224000Y-18249000D01*
X52198000Y-18247000D01*
X52172000Y-18244000D01*
X52146000Y-18239000D01*
X52121000Y-18233000D01*
X52095000Y-18226000D01*
X52071000Y-18217000D01*
X52047000Y-18207000D01*
X52023000Y-18196000D01*
X52000000Y-18183000D01*
X51978000Y-18169000D01*
X51956000Y-18155000D01*
X51935000Y-18139000D01*
X51915000Y-18122000D01*
X51896000Y-18104000D01*
X51878000Y-18085000D01*
X51861000Y-18065000D01*
X51845000Y-18044000D01*
X51831000Y-18022000D01*
X51817000Y-18000000D01*
X51804000Y-17977000D01*
X51793000Y-17953000D01*
X51783000Y-17929000D01*
X51774000Y-17905000D01*
X51767000Y-17879000D01*
X51761000Y-17854000D01*
X51756000Y-17828000D01*
X51753000Y-17802000D01*
X51751000Y-17776000D01*
X51750000Y-17750000D01*
X51750000Y-16250000D01*
X52750000Y-16250000D01*
X52750000Y-17750000D01*
G36*
X52750000Y-17750000D02*
G01*
X52749000Y-17776000D01*
X52747000Y-17802000D01*
X52744000Y-17828000D01*
X52739000Y-17854000D01*
X52733000Y-17879000D01*
X52726000Y-17905000D01*
X52717000Y-17929000D01*
X52707000Y-17953000D01*
X52696000Y-17977000D01*
X52683000Y-18000000D01*
X52669000Y-18022000D01*
X52655000Y-18044000D01*
X52639000Y-18065000D01*
X52622000Y-18085000D01*
X52604000Y-18104000D01*
X52585000Y-18122000D01*
X52565000Y-18139000D01*
X52544000Y-18155000D01*
X52522000Y-18169000D01*
X52500000Y-18183000D01*
X52477000Y-18196000D01*
X52453000Y-18207000D01*
X52429000Y-18217000D01*
X52405000Y-18226000D01*
X52379000Y-18233000D01*
X52354000Y-18239000D01*
X52328000Y-18244000D01*
X52302000Y-18247000D01*
X52276000Y-18249000D01*
X52250000Y-18250000D01*
X52224000Y-18249000D01*
X52198000Y-18247000D01*
X52172000Y-18244000D01*
X52146000Y-18239000D01*
X52121000Y-18233000D01*
X52095000Y-18226000D01*
X52071000Y-18217000D01*
X52047000Y-18207000D01*
X52023000Y-18196000D01*
X52000000Y-18183000D01*
X51978000Y-18169000D01*
X51956000Y-18155000D01*
X51935000Y-18139000D01*
X51915000Y-18122000D01*
X51896000Y-18104000D01*
X51878000Y-18085000D01*
X51861000Y-18065000D01*
X51845000Y-18044000D01*
X51831000Y-18022000D01*
X51817000Y-18000000D01*
X51804000Y-17977000D01*
X51793000Y-17953000D01*
X51783000Y-17929000D01*
X51774000Y-17905000D01*
X51767000Y-17879000D01*
X51761000Y-17854000D01*
X51756000Y-17828000D01*
X51753000Y-17802000D01*
X51751000Y-17776000D01*
X51750000Y-17750000D01*
X51750000Y-16250000D01*
X52750000Y-16250000D01*
X52750000Y-17750000D01*
G37*
X54250000Y-17750000D02*
X54249000Y-17776000D01*
X54247000Y-17802000D01*
X54244000Y-17828000D01*
X54239000Y-17854000D01*
X54233000Y-17879000D01*
X54226000Y-17905000D01*
X54217000Y-17929000D01*
X54207000Y-17953000D01*
X54196000Y-17977000D01*
X54183000Y-18000000D01*
X54169000Y-18022000D01*
X54155000Y-18044000D01*
X54139000Y-18065000D01*
X54122000Y-18085000D01*
X54104000Y-18104000D01*
X54085000Y-18122000D01*
X54065000Y-18139000D01*
X54044000Y-18155000D01*
X54022000Y-18169000D01*
X54000000Y-18183000D01*
X53977000Y-18196000D01*
X53953000Y-18207000D01*
X53929000Y-18217000D01*
X53905000Y-18226000D01*
X53879000Y-18233000D01*
X53854000Y-18239000D01*
X53828000Y-18244000D01*
X53802000Y-18247000D01*
X53776000Y-18249000D01*
X53750000Y-18250000D01*
X53724000Y-18249000D01*
X53698000Y-18247000D01*
X53672000Y-18244000D01*
X53646000Y-18239000D01*
X53621000Y-18233000D01*
X53595000Y-18226000D01*
X53571000Y-18217000D01*
X53547000Y-18207000D01*
X53523000Y-18196000D01*
X53500000Y-18183000D01*
X53478000Y-18169000D01*
X53456000Y-18155000D01*
X53435000Y-18139000D01*
X53415000Y-18122000D01*
X53396000Y-18104000D01*
X53378000Y-18085000D01*
X53361000Y-18065000D01*
X53345000Y-18044000D01*
X53331000Y-18022000D01*
X53317000Y-18000000D01*
X53304000Y-17977000D01*
X53293000Y-17953000D01*
X53283000Y-17929000D01*
X53274000Y-17905000D01*
X53267000Y-17879000D01*
X53261000Y-17854000D01*
X53256000Y-17828000D01*
X53253000Y-17802000D01*
X53251000Y-17776000D01*
X53250000Y-17750000D01*
X53250000Y-16250000D01*
X54250000Y-16250000D01*
X54250000Y-17750000D01*
G36*
X54250000Y-17750000D02*
G01*
X54249000Y-17776000D01*
X54247000Y-17802000D01*
X54244000Y-17828000D01*
X54239000Y-17854000D01*
X54233000Y-17879000D01*
X54226000Y-17905000D01*
X54217000Y-17929000D01*
X54207000Y-17953000D01*
X54196000Y-17977000D01*
X54183000Y-18000000D01*
X54169000Y-18022000D01*
X54155000Y-18044000D01*
X54139000Y-18065000D01*
X54122000Y-18085000D01*
X54104000Y-18104000D01*
X54085000Y-18122000D01*
X54065000Y-18139000D01*
X54044000Y-18155000D01*
X54022000Y-18169000D01*
X54000000Y-18183000D01*
X53977000Y-18196000D01*
X53953000Y-18207000D01*
X53929000Y-18217000D01*
X53905000Y-18226000D01*
X53879000Y-18233000D01*
X53854000Y-18239000D01*
X53828000Y-18244000D01*
X53802000Y-18247000D01*
X53776000Y-18249000D01*
X53750000Y-18250000D01*
X53724000Y-18249000D01*
X53698000Y-18247000D01*
X53672000Y-18244000D01*
X53646000Y-18239000D01*
X53621000Y-18233000D01*
X53595000Y-18226000D01*
X53571000Y-18217000D01*
X53547000Y-18207000D01*
X53523000Y-18196000D01*
X53500000Y-18183000D01*
X53478000Y-18169000D01*
X53456000Y-18155000D01*
X53435000Y-18139000D01*
X53415000Y-18122000D01*
X53396000Y-18104000D01*
X53378000Y-18085000D01*
X53361000Y-18065000D01*
X53345000Y-18044000D01*
X53331000Y-18022000D01*
X53317000Y-18000000D01*
X53304000Y-17977000D01*
X53293000Y-17953000D01*
X53283000Y-17929000D01*
X53274000Y-17905000D01*
X53267000Y-17879000D01*
X53261000Y-17854000D01*
X53256000Y-17828000D01*
X53253000Y-17802000D01*
X53251000Y-17776000D01*
X53250000Y-17750000D01*
X53250000Y-16250000D01*
X54250000Y-16250000D01*
X54250000Y-17750000D01*
G37*
X55750000Y-17750000D02*
X55749000Y-17776000D01*
X55747000Y-17802000D01*
X55744000Y-17828000D01*
X55739000Y-17854000D01*
X55733000Y-17879000D01*
X55726000Y-17905000D01*
X55717000Y-17929000D01*
X55707000Y-17953000D01*
X55696000Y-17977000D01*
X55683000Y-18000000D01*
X55669000Y-18022000D01*
X55655000Y-18044000D01*
X55639000Y-18065000D01*
X55622000Y-18085000D01*
X55604000Y-18104000D01*
X55585000Y-18122000D01*
X55565000Y-18139000D01*
X55544000Y-18155000D01*
X55522000Y-18169000D01*
X55500000Y-18183000D01*
X55477000Y-18196000D01*
X55453000Y-18207000D01*
X55429000Y-18217000D01*
X55405000Y-18226000D01*
X55379000Y-18233000D01*
X55354000Y-18239000D01*
X55328000Y-18244000D01*
X55302000Y-18247000D01*
X55276000Y-18249000D01*
X55250000Y-18250000D01*
X55224000Y-18249000D01*
X55198000Y-18247000D01*
X55172000Y-18244000D01*
X55146000Y-18239000D01*
X55121000Y-18233000D01*
X55095000Y-18226000D01*
X55071000Y-18217000D01*
X55047000Y-18207000D01*
X55023000Y-18196000D01*
X55000000Y-18183000D01*
X54978000Y-18169000D01*
X54956000Y-18155000D01*
X54935000Y-18139000D01*
X54915000Y-18122000D01*
X54896000Y-18104000D01*
X54878000Y-18085000D01*
X54861000Y-18065000D01*
X54845000Y-18044000D01*
X54831000Y-18022000D01*
X54817000Y-18000000D01*
X54804000Y-17977000D01*
X54793000Y-17953000D01*
X54783000Y-17929000D01*
X54774000Y-17905000D01*
X54767000Y-17879000D01*
X54761000Y-17854000D01*
X54756000Y-17828000D01*
X54753000Y-17802000D01*
X54751000Y-17776000D01*
X54750000Y-17750000D01*
X54750000Y-16250000D01*
X55750000Y-16250000D01*
X55750000Y-17750000D01*
G36*
X55750000Y-17750000D02*
G01*
X55749000Y-17776000D01*
X55747000Y-17802000D01*
X55744000Y-17828000D01*
X55739000Y-17854000D01*
X55733000Y-17879000D01*
X55726000Y-17905000D01*
X55717000Y-17929000D01*
X55707000Y-17953000D01*
X55696000Y-17977000D01*
X55683000Y-18000000D01*
X55669000Y-18022000D01*
X55655000Y-18044000D01*
X55639000Y-18065000D01*
X55622000Y-18085000D01*
X55604000Y-18104000D01*
X55585000Y-18122000D01*
X55565000Y-18139000D01*
X55544000Y-18155000D01*
X55522000Y-18169000D01*
X55500000Y-18183000D01*
X55477000Y-18196000D01*
X55453000Y-18207000D01*
X55429000Y-18217000D01*
X55405000Y-18226000D01*
X55379000Y-18233000D01*
X55354000Y-18239000D01*
X55328000Y-18244000D01*
X55302000Y-18247000D01*
X55276000Y-18249000D01*
X55250000Y-18250000D01*
X55224000Y-18249000D01*
X55198000Y-18247000D01*
X55172000Y-18244000D01*
X55146000Y-18239000D01*
X55121000Y-18233000D01*
X55095000Y-18226000D01*
X55071000Y-18217000D01*
X55047000Y-18207000D01*
X55023000Y-18196000D01*
X55000000Y-18183000D01*
X54978000Y-18169000D01*
X54956000Y-18155000D01*
X54935000Y-18139000D01*
X54915000Y-18122000D01*
X54896000Y-18104000D01*
X54878000Y-18085000D01*
X54861000Y-18065000D01*
X54845000Y-18044000D01*
X54831000Y-18022000D01*
X54817000Y-18000000D01*
X54804000Y-17977000D01*
X54793000Y-17953000D01*
X54783000Y-17929000D01*
X54774000Y-17905000D01*
X54767000Y-17879000D01*
X54761000Y-17854000D01*
X54756000Y-17828000D01*
X54753000Y-17802000D01*
X54751000Y-17776000D01*
X54750000Y-17750000D01*
X54750000Y-16250000D01*
X55750000Y-16250000D01*
X55750000Y-17750000D01*
G37*
X57250000Y-17750000D02*
X57249000Y-17776000D01*
X57247000Y-17802000D01*
X57244000Y-17828000D01*
X57239000Y-17854000D01*
X57233000Y-17879000D01*
X57226000Y-17905000D01*
X57217000Y-17929000D01*
X57207000Y-17953000D01*
X57196000Y-17977000D01*
X57183000Y-18000000D01*
X57169000Y-18022000D01*
X57155000Y-18044000D01*
X57139000Y-18065000D01*
X57122000Y-18085000D01*
X57104000Y-18104000D01*
X57085000Y-18122000D01*
X57065000Y-18139000D01*
X57044000Y-18155000D01*
X57022000Y-18169000D01*
X57000000Y-18183000D01*
X56977000Y-18196000D01*
X56953000Y-18207000D01*
X56929000Y-18217000D01*
X56905000Y-18226000D01*
X56879000Y-18233000D01*
X56854000Y-18239000D01*
X56828000Y-18244000D01*
X56802000Y-18247000D01*
X56776000Y-18249000D01*
X56750000Y-18250000D01*
X56724000Y-18249000D01*
X56698000Y-18247000D01*
X56672000Y-18244000D01*
X56646000Y-18239000D01*
X56621000Y-18233000D01*
X56595000Y-18226000D01*
X56571000Y-18217000D01*
X56547000Y-18207000D01*
X56523000Y-18196000D01*
X56500000Y-18183000D01*
X56478000Y-18169000D01*
X56456000Y-18155000D01*
X56435000Y-18139000D01*
X56415000Y-18122000D01*
X56396000Y-18104000D01*
X56378000Y-18085000D01*
X56361000Y-18065000D01*
X56345000Y-18044000D01*
X56331000Y-18022000D01*
X56317000Y-18000000D01*
X56304000Y-17977000D01*
X56293000Y-17953000D01*
X56283000Y-17929000D01*
X56274000Y-17905000D01*
X56267000Y-17879000D01*
X56261000Y-17854000D01*
X56256000Y-17828000D01*
X56253000Y-17802000D01*
X56251000Y-17776000D01*
X56250000Y-17750000D01*
X56250000Y-16250000D01*
X57250000Y-16250000D01*
X57250000Y-17750000D01*
G36*
X57250000Y-17750000D02*
G01*
X57249000Y-17776000D01*
X57247000Y-17802000D01*
X57244000Y-17828000D01*
X57239000Y-17854000D01*
X57233000Y-17879000D01*
X57226000Y-17905000D01*
X57217000Y-17929000D01*
X57207000Y-17953000D01*
X57196000Y-17977000D01*
X57183000Y-18000000D01*
X57169000Y-18022000D01*
X57155000Y-18044000D01*
X57139000Y-18065000D01*
X57122000Y-18085000D01*
X57104000Y-18104000D01*
X57085000Y-18122000D01*
X57065000Y-18139000D01*
X57044000Y-18155000D01*
X57022000Y-18169000D01*
X57000000Y-18183000D01*
X56977000Y-18196000D01*
X56953000Y-18207000D01*
X56929000Y-18217000D01*
X56905000Y-18226000D01*
X56879000Y-18233000D01*
X56854000Y-18239000D01*
X56828000Y-18244000D01*
X56802000Y-18247000D01*
X56776000Y-18249000D01*
X56750000Y-18250000D01*
X56724000Y-18249000D01*
X56698000Y-18247000D01*
X56672000Y-18244000D01*
X56646000Y-18239000D01*
X56621000Y-18233000D01*
X56595000Y-18226000D01*
X56571000Y-18217000D01*
X56547000Y-18207000D01*
X56523000Y-18196000D01*
X56500000Y-18183000D01*
X56478000Y-18169000D01*
X56456000Y-18155000D01*
X56435000Y-18139000D01*
X56415000Y-18122000D01*
X56396000Y-18104000D01*
X56378000Y-18085000D01*
X56361000Y-18065000D01*
X56345000Y-18044000D01*
X56331000Y-18022000D01*
X56317000Y-18000000D01*
X56304000Y-17977000D01*
X56293000Y-17953000D01*
X56283000Y-17929000D01*
X56274000Y-17905000D01*
X56267000Y-17879000D01*
X56261000Y-17854000D01*
X56256000Y-17828000D01*
X56253000Y-17802000D01*
X56251000Y-17776000D01*
X56250000Y-17750000D01*
X56250000Y-16250000D01*
X57250000Y-16250000D01*
X57250000Y-17750000D01*
G37*
X58750000Y-17750000D02*
X58749000Y-17776000D01*
X58747000Y-17802000D01*
X58744000Y-17828000D01*
X58739000Y-17854000D01*
X58733000Y-17879000D01*
X58726000Y-17905000D01*
X58717000Y-17929000D01*
X58707000Y-17953000D01*
X58696000Y-17977000D01*
X58683000Y-18000000D01*
X58669000Y-18022000D01*
X58655000Y-18044000D01*
X58639000Y-18065000D01*
X58622000Y-18085000D01*
X58604000Y-18104000D01*
X58585000Y-18122000D01*
X58565000Y-18139000D01*
X58544000Y-18155000D01*
X58522000Y-18169000D01*
X58500000Y-18183000D01*
X58477000Y-18196000D01*
X58453000Y-18207000D01*
X58429000Y-18217000D01*
X58405000Y-18226000D01*
X58379000Y-18233000D01*
X58354000Y-18239000D01*
X58328000Y-18244000D01*
X58302000Y-18247000D01*
X58276000Y-18249000D01*
X58250000Y-18250000D01*
X58224000Y-18249000D01*
X58198000Y-18247000D01*
X58172000Y-18244000D01*
X58146000Y-18239000D01*
X58121000Y-18233000D01*
X58095000Y-18226000D01*
X58071000Y-18217000D01*
X58047000Y-18207000D01*
X58023000Y-18196000D01*
X58000000Y-18183000D01*
X57978000Y-18169000D01*
X57956000Y-18155000D01*
X57935000Y-18139000D01*
X57915000Y-18122000D01*
X57896000Y-18104000D01*
X57878000Y-18085000D01*
X57861000Y-18065000D01*
X57845000Y-18044000D01*
X57831000Y-18022000D01*
X57817000Y-18000000D01*
X57804000Y-17977000D01*
X57793000Y-17953000D01*
X57783000Y-17929000D01*
X57774000Y-17905000D01*
X57767000Y-17879000D01*
X57761000Y-17854000D01*
X57756000Y-17828000D01*
X57753000Y-17802000D01*
X57751000Y-17776000D01*
X57750000Y-17750000D01*
X57750000Y-16250000D01*
X58750000Y-16250000D01*
X58750000Y-17750000D01*
G36*
X58750000Y-17750000D02*
G01*
X58749000Y-17776000D01*
X58747000Y-17802000D01*
X58744000Y-17828000D01*
X58739000Y-17854000D01*
X58733000Y-17879000D01*
X58726000Y-17905000D01*
X58717000Y-17929000D01*
X58707000Y-17953000D01*
X58696000Y-17977000D01*
X58683000Y-18000000D01*
X58669000Y-18022000D01*
X58655000Y-18044000D01*
X58639000Y-18065000D01*
X58622000Y-18085000D01*
X58604000Y-18104000D01*
X58585000Y-18122000D01*
X58565000Y-18139000D01*
X58544000Y-18155000D01*
X58522000Y-18169000D01*
X58500000Y-18183000D01*
X58477000Y-18196000D01*
X58453000Y-18207000D01*
X58429000Y-18217000D01*
X58405000Y-18226000D01*
X58379000Y-18233000D01*
X58354000Y-18239000D01*
X58328000Y-18244000D01*
X58302000Y-18247000D01*
X58276000Y-18249000D01*
X58250000Y-18250000D01*
X58224000Y-18249000D01*
X58198000Y-18247000D01*
X58172000Y-18244000D01*
X58146000Y-18239000D01*
X58121000Y-18233000D01*
X58095000Y-18226000D01*
X58071000Y-18217000D01*
X58047000Y-18207000D01*
X58023000Y-18196000D01*
X58000000Y-18183000D01*
X57978000Y-18169000D01*
X57956000Y-18155000D01*
X57935000Y-18139000D01*
X57915000Y-18122000D01*
X57896000Y-18104000D01*
X57878000Y-18085000D01*
X57861000Y-18065000D01*
X57845000Y-18044000D01*
X57831000Y-18022000D01*
X57817000Y-18000000D01*
X57804000Y-17977000D01*
X57793000Y-17953000D01*
X57783000Y-17929000D01*
X57774000Y-17905000D01*
X57767000Y-17879000D01*
X57761000Y-17854000D01*
X57756000Y-17828000D01*
X57753000Y-17802000D01*
X57751000Y-17776000D01*
X57750000Y-17750000D01*
X57750000Y-16250000D01*
X58750000Y-16250000D01*
X58750000Y-17750000D01*
G37*
X60776000Y-9001000D02*
X60802000Y-9003000D01*
X60828000Y-9006000D01*
X60854000Y-9011000D01*
X60879000Y-9017000D01*
X60905000Y-9024000D01*
X60929000Y-9033000D01*
X60953000Y-9043000D01*
X60977000Y-9054000D01*
X61000000Y-9067000D01*
X61022000Y-9081000D01*
X61044000Y-9095000D01*
X61065000Y-9111000D01*
X61085000Y-9128000D01*
X61104000Y-9146000D01*
X61122000Y-9165000D01*
X61139000Y-9185000D01*
X61155000Y-9206000D01*
X61169000Y-9228000D01*
X61183000Y-9250000D01*
X61196000Y-9273000D01*
X61207000Y-9297000D01*
X61217000Y-9321000D01*
X61226000Y-9345000D01*
X61233000Y-9371000D01*
X61239000Y-9396000D01*
X61244000Y-9422000D01*
X61247000Y-9448000D01*
X61249000Y-9474000D01*
X61250000Y-9500000D01*
X61249000Y-9526000D01*
X61247000Y-9552000D01*
X61244000Y-9578000D01*
X61239000Y-9604000D01*
X61233000Y-9629000D01*
X61226000Y-9655000D01*
X61217000Y-9679000D01*
X61207000Y-9703000D01*
X61196000Y-9727000D01*
X61183000Y-9750000D01*
X61169000Y-9772000D01*
X61155000Y-9794000D01*
X61139000Y-9815000D01*
X61122000Y-9835000D01*
X61104000Y-9854000D01*
X61085000Y-9872000D01*
X61065000Y-9889000D01*
X61044000Y-9905000D01*
X61022000Y-9919000D01*
X61000000Y-9933000D01*
X60977000Y-9946000D01*
X60953000Y-9957000D01*
X60929000Y-9967000D01*
X60905000Y-9976000D01*
X60879000Y-9983000D01*
X60854000Y-9989000D01*
X60828000Y-9994000D01*
X60802000Y-9997000D01*
X60776000Y-9999000D01*
X60750000Y-10000000D01*
X59250000Y-10000000D01*
X59250000Y-9000000D01*
X60750000Y-9000000D01*
X60776000Y-9001000D01*
G36*
X60776000Y-9001000D02*
G01*
X60802000Y-9003000D01*
X60828000Y-9006000D01*
X60854000Y-9011000D01*
X60879000Y-9017000D01*
X60905000Y-9024000D01*
X60929000Y-9033000D01*
X60953000Y-9043000D01*
X60977000Y-9054000D01*
X61000000Y-9067000D01*
X61022000Y-9081000D01*
X61044000Y-9095000D01*
X61065000Y-9111000D01*
X61085000Y-9128000D01*
X61104000Y-9146000D01*
X61122000Y-9165000D01*
X61139000Y-9185000D01*
X61155000Y-9206000D01*
X61169000Y-9228000D01*
X61183000Y-9250000D01*
X61196000Y-9273000D01*
X61207000Y-9297000D01*
X61217000Y-9321000D01*
X61226000Y-9345000D01*
X61233000Y-9371000D01*
X61239000Y-9396000D01*
X61244000Y-9422000D01*
X61247000Y-9448000D01*
X61249000Y-9474000D01*
X61250000Y-9500000D01*
X61249000Y-9526000D01*
X61247000Y-9552000D01*
X61244000Y-9578000D01*
X61239000Y-9604000D01*
X61233000Y-9629000D01*
X61226000Y-9655000D01*
X61217000Y-9679000D01*
X61207000Y-9703000D01*
X61196000Y-9727000D01*
X61183000Y-9750000D01*
X61169000Y-9772000D01*
X61155000Y-9794000D01*
X61139000Y-9815000D01*
X61122000Y-9835000D01*
X61104000Y-9854000D01*
X61085000Y-9872000D01*
X61065000Y-9889000D01*
X61044000Y-9905000D01*
X61022000Y-9919000D01*
X61000000Y-9933000D01*
X60977000Y-9946000D01*
X60953000Y-9957000D01*
X60929000Y-9967000D01*
X60905000Y-9976000D01*
X60879000Y-9983000D01*
X60854000Y-9989000D01*
X60828000Y-9994000D01*
X60802000Y-9997000D01*
X60776000Y-9999000D01*
X60750000Y-10000000D01*
X59250000Y-10000000D01*
X59250000Y-9000000D01*
X60750000Y-9000000D01*
X60776000Y-9001000D01*
G37*
X60776000Y-10501000D02*
X60802000Y-10503000D01*
X60828000Y-10506000D01*
X60854000Y-10511000D01*
X60879000Y-10517000D01*
X60905000Y-10524000D01*
X60929000Y-10533000D01*
X60953000Y-10543000D01*
X60977000Y-10554000D01*
X61000000Y-10567000D01*
X61022000Y-10581000D01*
X61044000Y-10595000D01*
X61065000Y-10611000D01*
X61085000Y-10628000D01*
X61104000Y-10646000D01*
X61122000Y-10665000D01*
X61139000Y-10685000D01*
X61155000Y-10706000D01*
X61169000Y-10728000D01*
X61183000Y-10750000D01*
X61196000Y-10773000D01*
X61207000Y-10797000D01*
X61217000Y-10821000D01*
X61226000Y-10845000D01*
X61233000Y-10871000D01*
X61239000Y-10896000D01*
X61244000Y-10922000D01*
X61247000Y-10948000D01*
X61249000Y-10974000D01*
X61250000Y-11000000D01*
X61249000Y-11026000D01*
X61247000Y-11052000D01*
X61244000Y-11078000D01*
X61239000Y-11104000D01*
X61233000Y-11129000D01*
X61226000Y-11155000D01*
X61217000Y-11179000D01*
X61207000Y-11203000D01*
X61196000Y-11227000D01*
X61183000Y-11250000D01*
X61169000Y-11272000D01*
X61155000Y-11294000D01*
X61139000Y-11315000D01*
X61122000Y-11335000D01*
X61104000Y-11354000D01*
X61085000Y-11372000D01*
X61065000Y-11389000D01*
X61044000Y-11405000D01*
X61022000Y-11419000D01*
X61000000Y-11433000D01*
X60977000Y-11446000D01*
X60953000Y-11457000D01*
X60929000Y-11467000D01*
X60905000Y-11476000D01*
X60879000Y-11483000D01*
X60854000Y-11489000D01*
X60828000Y-11494000D01*
X60802000Y-11497000D01*
X60776000Y-11499000D01*
X60750000Y-11500000D01*
X59250000Y-11500000D01*
X59250000Y-10500000D01*
X60750000Y-10500000D01*
X60776000Y-10501000D01*
G36*
X60776000Y-10501000D02*
G01*
X60802000Y-10503000D01*
X60828000Y-10506000D01*
X60854000Y-10511000D01*
X60879000Y-10517000D01*
X60905000Y-10524000D01*
X60929000Y-10533000D01*
X60953000Y-10543000D01*
X60977000Y-10554000D01*
X61000000Y-10567000D01*
X61022000Y-10581000D01*
X61044000Y-10595000D01*
X61065000Y-10611000D01*
X61085000Y-10628000D01*
X61104000Y-10646000D01*
X61122000Y-10665000D01*
X61139000Y-10685000D01*
X61155000Y-10706000D01*
X61169000Y-10728000D01*
X61183000Y-10750000D01*
X61196000Y-10773000D01*
X61207000Y-10797000D01*
X61217000Y-10821000D01*
X61226000Y-10845000D01*
X61233000Y-10871000D01*
X61239000Y-10896000D01*
X61244000Y-10922000D01*
X61247000Y-10948000D01*
X61249000Y-10974000D01*
X61250000Y-11000000D01*
X61249000Y-11026000D01*
X61247000Y-11052000D01*
X61244000Y-11078000D01*
X61239000Y-11104000D01*
X61233000Y-11129000D01*
X61226000Y-11155000D01*
X61217000Y-11179000D01*
X61207000Y-11203000D01*
X61196000Y-11227000D01*
X61183000Y-11250000D01*
X61169000Y-11272000D01*
X61155000Y-11294000D01*
X61139000Y-11315000D01*
X61122000Y-11335000D01*
X61104000Y-11354000D01*
X61085000Y-11372000D01*
X61065000Y-11389000D01*
X61044000Y-11405000D01*
X61022000Y-11419000D01*
X61000000Y-11433000D01*
X60977000Y-11446000D01*
X60953000Y-11457000D01*
X60929000Y-11467000D01*
X60905000Y-11476000D01*
X60879000Y-11483000D01*
X60854000Y-11489000D01*
X60828000Y-11494000D01*
X60802000Y-11497000D01*
X60776000Y-11499000D01*
X60750000Y-11500000D01*
X59250000Y-11500000D01*
X59250000Y-10500000D01*
X60750000Y-10500000D01*
X60776000Y-10501000D01*
G37*
X60776000Y-12001000D02*
X60802000Y-12003000D01*
X60828000Y-12006000D01*
X60854000Y-12011000D01*
X60879000Y-12017000D01*
X60905000Y-12024000D01*
X60929000Y-12033000D01*
X60953000Y-12043000D01*
X60977000Y-12054000D01*
X61000000Y-12067000D01*
X61022000Y-12081000D01*
X61044000Y-12095000D01*
X61065000Y-12111000D01*
X61085000Y-12128000D01*
X61104000Y-12146000D01*
X61122000Y-12165000D01*
X61139000Y-12185000D01*
X61155000Y-12206000D01*
X61169000Y-12228000D01*
X61183000Y-12250000D01*
X61196000Y-12273000D01*
X61207000Y-12297000D01*
X61217000Y-12321000D01*
X61226000Y-12345000D01*
X61233000Y-12371000D01*
X61239000Y-12396000D01*
X61244000Y-12422000D01*
X61247000Y-12448000D01*
X61249000Y-12474000D01*
X61250000Y-12500000D01*
X61249000Y-12526000D01*
X61247000Y-12552000D01*
X61244000Y-12578000D01*
X61239000Y-12604000D01*
X61233000Y-12629000D01*
X61226000Y-12655000D01*
X61217000Y-12679000D01*
X61207000Y-12703000D01*
X61196000Y-12727000D01*
X61183000Y-12750000D01*
X61169000Y-12772000D01*
X61155000Y-12794000D01*
X61139000Y-12815000D01*
X61122000Y-12835000D01*
X61104000Y-12854000D01*
X61085000Y-12872000D01*
X61065000Y-12889000D01*
X61044000Y-12905000D01*
X61022000Y-12919000D01*
X61000000Y-12933000D01*
X60977000Y-12946000D01*
X60953000Y-12957000D01*
X60929000Y-12967000D01*
X60905000Y-12976000D01*
X60879000Y-12983000D01*
X60854000Y-12989000D01*
X60828000Y-12994000D01*
X60802000Y-12997000D01*
X60776000Y-12999000D01*
X60750000Y-13000000D01*
X59250000Y-13000000D01*
X59250000Y-12000000D01*
X60750000Y-12000000D01*
X60776000Y-12001000D01*
G36*
X60776000Y-12001000D02*
G01*
X60802000Y-12003000D01*
X60828000Y-12006000D01*
X60854000Y-12011000D01*
X60879000Y-12017000D01*
X60905000Y-12024000D01*
X60929000Y-12033000D01*
X60953000Y-12043000D01*
X60977000Y-12054000D01*
X61000000Y-12067000D01*
X61022000Y-12081000D01*
X61044000Y-12095000D01*
X61065000Y-12111000D01*
X61085000Y-12128000D01*
X61104000Y-12146000D01*
X61122000Y-12165000D01*
X61139000Y-12185000D01*
X61155000Y-12206000D01*
X61169000Y-12228000D01*
X61183000Y-12250000D01*
X61196000Y-12273000D01*
X61207000Y-12297000D01*
X61217000Y-12321000D01*
X61226000Y-12345000D01*
X61233000Y-12371000D01*
X61239000Y-12396000D01*
X61244000Y-12422000D01*
X61247000Y-12448000D01*
X61249000Y-12474000D01*
X61250000Y-12500000D01*
X61249000Y-12526000D01*
X61247000Y-12552000D01*
X61244000Y-12578000D01*
X61239000Y-12604000D01*
X61233000Y-12629000D01*
X61226000Y-12655000D01*
X61217000Y-12679000D01*
X61207000Y-12703000D01*
X61196000Y-12727000D01*
X61183000Y-12750000D01*
X61169000Y-12772000D01*
X61155000Y-12794000D01*
X61139000Y-12815000D01*
X61122000Y-12835000D01*
X61104000Y-12854000D01*
X61085000Y-12872000D01*
X61065000Y-12889000D01*
X61044000Y-12905000D01*
X61022000Y-12919000D01*
X61000000Y-12933000D01*
X60977000Y-12946000D01*
X60953000Y-12957000D01*
X60929000Y-12967000D01*
X60905000Y-12976000D01*
X60879000Y-12983000D01*
X60854000Y-12989000D01*
X60828000Y-12994000D01*
X60802000Y-12997000D01*
X60776000Y-12999000D01*
X60750000Y-13000000D01*
X59250000Y-13000000D01*
X59250000Y-12000000D01*
X60750000Y-12000000D01*
X60776000Y-12001000D01*
G37*
X60776000Y-13501000D02*
X60802000Y-13503000D01*
X60828000Y-13506000D01*
X60854000Y-13511000D01*
X60879000Y-13517000D01*
X60905000Y-13524000D01*
X60929000Y-13533000D01*
X60953000Y-13543000D01*
X60977000Y-13554000D01*
X61000000Y-13567000D01*
X61022000Y-13581000D01*
X61044000Y-13595000D01*
X61065000Y-13611000D01*
X61085000Y-13628000D01*
X61104000Y-13646000D01*
X61122000Y-13665000D01*
X61139000Y-13685000D01*
X61155000Y-13706000D01*
X61169000Y-13728000D01*
X61183000Y-13750000D01*
X61196000Y-13773000D01*
X61207000Y-13797000D01*
X61217000Y-13821000D01*
X61226000Y-13845000D01*
X61233000Y-13871000D01*
X61239000Y-13896000D01*
X61244000Y-13922000D01*
X61247000Y-13948000D01*
X61249000Y-13974000D01*
X61250000Y-14000000D01*
X61249000Y-14026000D01*
X61249000Y-14052000D01*
X61249000Y-14078000D01*
X61239000Y-14104000D01*
X61233000Y-14129000D01*
X61226000Y-14155000D01*
X61217000Y-14179000D01*
X61207000Y-14203000D01*
X61196000Y-14227000D01*
X61183000Y-14250000D01*
X61169000Y-14272000D01*
X61155000Y-14294000D01*
X61139000Y-14315000D01*
X61122000Y-14335000D01*
X61104000Y-14354000D01*
X61085000Y-14372000D01*
X61065000Y-14389000D01*
X61044000Y-14405000D01*
X61022000Y-14419000D01*
X61000000Y-14433000D01*
X60977000Y-14446000D01*
X60953000Y-14457000D01*
X60929000Y-14467000D01*
X60905000Y-14476000D01*
X60879000Y-14483000D01*
X60854000Y-14489000D01*
X60828000Y-14494000D01*
X60802000Y-14497000D01*
X60776000Y-14499000D01*
X60750000Y-14500000D01*
X59250000Y-14500000D01*
X59250000Y-13500000D01*
X60750000Y-13500000D01*
X60776000Y-13501000D01*
G36*
X60776000Y-13501000D02*
G01*
X60802000Y-13503000D01*
X60828000Y-13506000D01*
X60854000Y-13511000D01*
X60879000Y-13517000D01*
X60905000Y-13524000D01*
X60929000Y-13533000D01*
X60953000Y-13543000D01*
X60977000Y-13554000D01*
X61000000Y-13567000D01*
X61022000Y-13581000D01*
X61044000Y-13595000D01*
X61065000Y-13611000D01*
X61085000Y-13628000D01*
X61104000Y-13646000D01*
X61122000Y-13665000D01*
X61139000Y-13685000D01*
X61155000Y-13706000D01*
X61169000Y-13728000D01*
X61183000Y-13750000D01*
X61196000Y-13773000D01*
X61207000Y-13797000D01*
X61217000Y-13821000D01*
X61226000Y-13845000D01*
X61233000Y-13871000D01*
X61239000Y-13896000D01*
X61244000Y-13922000D01*
X61247000Y-13948000D01*
X61249000Y-13974000D01*
X61250000Y-14000000D01*
X61249000Y-14026000D01*
X61249000Y-14052000D01*
X61249000Y-14078000D01*
X61239000Y-14104000D01*
X61233000Y-14129000D01*
X61226000Y-14155000D01*
X61217000Y-14179000D01*
X61207000Y-14203000D01*
X61196000Y-14227000D01*
X61183000Y-14250000D01*
X61169000Y-14272000D01*
X61155000Y-14294000D01*
X61139000Y-14315000D01*
X61122000Y-14335000D01*
X61104000Y-14354000D01*
X61085000Y-14372000D01*
X61065000Y-14389000D01*
X61044000Y-14405000D01*
X61022000Y-14419000D01*
X61000000Y-14433000D01*
X60977000Y-14446000D01*
X60953000Y-14457000D01*
X60929000Y-14467000D01*
X60905000Y-14476000D01*
X60879000Y-14483000D01*
X60854000Y-14489000D01*
X60828000Y-14494000D01*
X60802000Y-14497000D01*
X60776000Y-14499000D01*
X60750000Y-14500000D01*
X59250000Y-14500000D01*
X59250000Y-13500000D01*
X60750000Y-13500000D01*
X60776000Y-13501000D01*
G37*
X60776000Y-15001000D02*
X60802000Y-15003000D01*
X60828000Y-15006000D01*
X60854000Y-15011000D01*
X60879000Y-15017000D01*
X60905000Y-15024000D01*
X60929000Y-15033000D01*
X60953000Y-15043000D01*
X60977000Y-15054000D01*
X61000000Y-15067000D01*
X61022000Y-15081000D01*
X61044000Y-15095000D01*
X61065000Y-15111000D01*
X61085000Y-15128000D01*
X61104000Y-15146000D01*
X61122000Y-15165000D01*
X61139000Y-15185000D01*
X61155000Y-15206000D01*
X61169000Y-15228000D01*
X61183000Y-15250000D01*
X61196000Y-15273000D01*
X61207000Y-15297000D01*
X61217000Y-15321000D01*
X61226000Y-15345000D01*
X61233000Y-15371000D01*
X61239000Y-15396000D01*
X61244000Y-15422000D01*
X61247000Y-15448000D01*
X61249000Y-15474000D01*
X61250000Y-15500000D01*
X61249000Y-15526000D01*
X61247000Y-15552000D01*
X61244000Y-15578000D01*
X61239000Y-15604000D01*
X61233000Y-15629000D01*
X61226000Y-15655000D01*
X61217000Y-15679000D01*
X61207000Y-15703000D01*
X61196000Y-15727000D01*
X61183000Y-15750000D01*
X61169000Y-15772000D01*
X61155000Y-15794000D01*
X61139000Y-15815000D01*
X61122000Y-15835000D01*
X61104000Y-15854000D01*
X61085000Y-15872000D01*
X61065000Y-15889000D01*
X61044000Y-15905000D01*
X61022000Y-15919000D01*
X61000000Y-15933000D01*
X60977000Y-15946000D01*
X60953000Y-15957000D01*
X60929000Y-15967000D01*
X60905000Y-15976000D01*
X60879000Y-15983000D01*
X60854000Y-15989000D01*
X60828000Y-15994000D01*
X60802000Y-15997000D01*
X60776000Y-15999000D01*
X60750000Y-16000000D01*
X59250000Y-16000000D01*
X59250000Y-15000000D01*
X60750000Y-15000000D01*
X60776000Y-15001000D01*
G36*
X60776000Y-15001000D02*
G01*
X60802000Y-15003000D01*
X60828000Y-15006000D01*
X60854000Y-15011000D01*
X60879000Y-15017000D01*
X60905000Y-15024000D01*
X60929000Y-15033000D01*
X60953000Y-15043000D01*
X60977000Y-15054000D01*
X61000000Y-15067000D01*
X61022000Y-15081000D01*
X61044000Y-15095000D01*
X61065000Y-15111000D01*
X61085000Y-15128000D01*
X61104000Y-15146000D01*
X61122000Y-15165000D01*
X61139000Y-15185000D01*
X61155000Y-15206000D01*
X61169000Y-15228000D01*
X61183000Y-15250000D01*
X61196000Y-15273000D01*
X61207000Y-15297000D01*
X61217000Y-15321000D01*
X61226000Y-15345000D01*
X61233000Y-15371000D01*
X61239000Y-15396000D01*
X61244000Y-15422000D01*
X61247000Y-15448000D01*
X61249000Y-15474000D01*
X61250000Y-15500000D01*
X61249000Y-15526000D01*
X61247000Y-15552000D01*
X61244000Y-15578000D01*
X61239000Y-15604000D01*
X61233000Y-15629000D01*
X61226000Y-15655000D01*
X61217000Y-15679000D01*
X61207000Y-15703000D01*
X61196000Y-15727000D01*
X61183000Y-15750000D01*
X61169000Y-15772000D01*
X61155000Y-15794000D01*
X61139000Y-15815000D01*
X61122000Y-15835000D01*
X61104000Y-15854000D01*
X61085000Y-15872000D01*
X61065000Y-15889000D01*
X61044000Y-15905000D01*
X61022000Y-15919000D01*
X61000000Y-15933000D01*
X60977000Y-15946000D01*
X60953000Y-15957000D01*
X60929000Y-15967000D01*
X60905000Y-15976000D01*
X60879000Y-15983000D01*
X60854000Y-15989000D01*
X60828000Y-15994000D01*
X60802000Y-15997000D01*
X60776000Y-15999000D01*
X60750000Y-16000000D01*
X59250000Y-16000000D01*
X59250000Y-15000000D01*
X60750000Y-15000000D01*
X60776000Y-15001000D01*
G37*
%TD*%
D11*
%TO.C,R1*%
X32175000Y-12000000D03*
X33825000Y-12000000D03*
%TD*%
D12*
%TO.C,C2*%
X49000000Y-21275000D03*
X49000000Y-19725000D03*
%TD*%
D13*
%TO.C,J2*%
X11365000Y-11000000D03*
X12635000Y-11000000D03*
%TD*%
D14*
%TO.C,D1*%
X35212500Y-12000000D03*
X36787500Y-12000000D03*
%TD*%
D15*
%TO.C,S1*%
X2350000Y-6220000D03*
X2350000Y-8430000D03*
X9650000Y-6220000D03*
X9650000Y-8430000D03*
D16*
X3750000Y-5570000D03*
X6750000Y-5570000D03*
X8250000Y-5570000D03*
%TD*%
D17*
%TO.C,JP1*%
X15050000Y-7000000D03*
X16950000Y-7000000D03*
%TD*%
D18*
%TO.C,R3*%
X61175000Y-27000000D03*
X62825000Y-27000000D03*
%TD*%
D19*
%TO.C,C1*%
X43000000Y-21450000D03*
X43000000Y-19550000D03*
%TD*%
D20*
%TO.C,D2*%
X58000000Y-38050000D03*
X58000000Y-35950000D03*
%TD*%
D21*
%TO.C,Q1*%
X61062500Y-33550000D03*
X61062500Y-35450000D03*
X62937500Y-34500000D03*
%TD*%
D13*
%TO.C,J1*%
X58095000Y-22000000D03*
X59365000Y-22000000D03*
X60635000Y-22000000D03*
X61905000Y-22000000D03*
%TD*%
D11*
%TO.C,R2*%
X61175000Y-24000000D03*
X62825000Y-24000000D03*
%TD*%
D22*
%TO.C,C3*%
X35000000Y-37517500D03*
X35000000Y-34482500D03*
%TD*%
D23*
%TO.C,BZ1*%
X48000000Y-25500000D03*
X48000000Y-36500000D03*
%TD*%
D24*
%TO.C,BT1*%
X10350000Y-24000000D03*
X37650000Y-24000000D03*
%TD*%
M02*
