%TF.GenerationSoftware,KiCad,Pcbnew,9.0.3*%
%TF.CreationDate,2026-09-20T17:49:36-06:00*%
%TF.ProjectId,SafeGuardBuzzer_v1,53616665-4775-4617-9264-42757a7a6572,rev?*%
%TF.SameCoordinates,Original*%
%TF.FileFunction,Legend,Top*%
%TF.FilePolarity,Positive*%
%FSLAX46Y46*%
G04 Gerber Fmt 4.6, Leading zero omitted, Abs format (unit mm)*
G04 Created by KiCad (PCBNEW 9.0.3) date 2026-09-20 17:49:36*
%MOMM*%
%LPD*%
G01*
G04 APERTURE LIST*
%ADD10C,0.150000*%
%ADD11C,0.100000*%
%ADD12C,0.120000*%
%ADD13C,0.127000*%
%ADD14C,0.200000*%
G04 APERTURE END LIST*
D10*
X32833333Y-11024819D02*
X32500000Y-10548628D01*
X32261905Y-11024819D02*
X32261905Y-10024819D01*
X32261905Y-10024819D02*
X32642857Y-10024819D01*
X32642857Y-10024819D02*
X32738095Y-10072438D01*
X32738095Y-10072438D02*
X32785714Y-10120057D01*
X32785714Y-10120057D02*
X32833333Y-10215295D01*
X32833333Y-10215295D02*
X32833333Y-10358152D01*
X32833333Y-10358152D02*
X32785714Y-10453390D01*
X32785714Y-10453390D02*
X32738095Y-10501009D01*
X32738095Y-10501009D02*
X32642857Y-10548628D01*
X32642857Y-10548628D02*
X32261905Y-10548628D01*
X33785714Y-11024819D02*
X33214286Y-11024819D01*
X33500000Y-11024819D02*
X33500000Y-10024819D01*
X33500000Y-10024819D02*
X33404762Y-10167676D01*
X33404762Y-10167676D02*
X33309524Y-10262914D01*
X33309524Y-10262914D02*
X33214286Y-10310533D01*
X47403333Y-20859580D02*
X47355714Y-20907200D01*
X47355714Y-20907200D02*
X47212857Y-20954819D01*
X47212857Y-20954819D02*
X47117619Y-20954819D01*
X47117619Y-20954819D02*
X46974762Y-20907200D01*
X46974762Y-20907200D02*
X46879524Y-20811961D01*
X46879524Y-20811961D02*
X46831905Y-20716723D01*
X46831905Y-20716723D02*
X46784286Y-20526247D01*
X46784286Y-20526247D02*
X46784286Y-20383390D01*
X46784286Y-20383390D02*
X46831905Y-20192914D01*
X46831905Y-20192914D02*
X46879524Y-20097676D01*
X46879524Y-20097676D02*
X46974762Y-20002438D01*
X46974762Y-20002438D02*
X47117619Y-19954819D01*
X47117619Y-19954819D02*
X47212857Y-19954819D01*
X47212857Y-19954819D02*
X47355714Y-20002438D01*
X47355714Y-20002438D02*
X47403333Y-20050057D01*
X47784286Y-20050057D02*
X47831905Y-20002438D01*
X47831905Y-20002438D02*
X47927143Y-19954819D01*
X47927143Y-19954819D02*
X48165238Y-19954819D01*
X48165238Y-19954819D02*
X48260476Y-20002438D01*
X48260476Y-20002438D02*
X48308095Y-20050057D01*
X48308095Y-20050057D02*
X48355714Y-20145295D01*
X48355714Y-20145295D02*
X48355714Y-20240533D01*
X48355714Y-20240533D02*
X48308095Y-20383390D01*
X48308095Y-20383390D02*
X47736667Y-20954819D01*
X47736667Y-20954819D02*
X48355714Y-20954819D01*
X50663095Y-1569819D02*
X50663095Y-2379342D01*
X50663095Y-2379342D02*
X50710714Y-2474580D01*
X50710714Y-2474580D02*
X50758333Y-2522200D01*
X50758333Y-2522200D02*
X50853571Y-2569819D01*
X50853571Y-2569819D02*
X51044047Y-2569819D01*
X51044047Y-2569819D02*
X51139285Y-2522200D01*
X51139285Y-2522200D02*
X51186904Y-2474580D01*
X51186904Y-2474580D02*
X51234523Y-2379342D01*
X51234523Y-2379342D02*
X51234523Y-1569819D01*
X52234523Y-2569819D02*
X51663095Y-2569819D01*
X51948809Y-2569819D02*
X51948809Y-1569819D01*
X51948809Y-1569819D02*
X51853571Y-1712676D01*
X51853571Y-1712676D02*
X51758333Y-1807914D01*
X51758333Y-1807914D02*
X51663095Y-1855533D01*
D11*
X11733333Y-8964895D02*
X11733333Y-9536323D01*
X11733333Y-9536323D02*
X11695238Y-9650609D01*
X11695238Y-9650609D02*
X11619047Y-9726800D01*
X11619047Y-9726800D02*
X11504762Y-9764895D01*
X11504762Y-9764895D02*
X11428571Y-9764895D01*
X12076190Y-9041085D02*
X12114286Y-9002990D01*
X12114286Y-9002990D02*
X12190476Y-8964895D01*
X12190476Y-8964895D02*
X12380952Y-8964895D01*
X12380952Y-8964895D02*
X12457143Y-9002990D01*
X12457143Y-9002990D02*
X12495238Y-9041085D01*
X12495238Y-9041085D02*
X12533333Y-9117276D01*
X12533333Y-9117276D02*
X12533333Y-9193466D01*
X12533333Y-9193466D02*
X12495238Y-9307752D01*
X12495238Y-9307752D02*
X12038095Y-9764895D01*
X12038095Y-9764895D02*
X12533333Y-9764895D01*
X11078571Y-10214895D02*
X10621428Y-10214895D01*
X10850000Y-10214895D02*
X10850000Y-9414895D01*
X10850000Y-9414895D02*
X10773809Y-9529180D01*
X10773809Y-9529180D02*
X10697619Y-9605371D01*
X10697619Y-9605371D02*
X10621428Y-9643466D01*
D10*
X35261905Y-11024819D02*
X35261905Y-10024819D01*
X35261905Y-10024819D02*
X35500000Y-10024819D01*
X35500000Y-10024819D02*
X35642857Y-10072438D01*
X35642857Y-10072438D02*
X35738095Y-10167676D01*
X35738095Y-10167676D02*
X35785714Y-10262914D01*
X35785714Y-10262914D02*
X35833333Y-10453390D01*
X35833333Y-10453390D02*
X35833333Y-10596247D01*
X35833333Y-10596247D02*
X35785714Y-10786723D01*
X35785714Y-10786723D02*
X35738095Y-10881961D01*
X35738095Y-10881961D02*
X35642857Y-10977200D01*
X35642857Y-10977200D02*
X35500000Y-11024819D01*
X35500000Y-11024819D02*
X35261905Y-11024819D01*
X36785714Y-11024819D02*
X36214286Y-11024819D01*
X36500000Y-11024819D02*
X36500000Y-10024819D01*
X36500000Y-10024819D02*
X36404762Y-10167676D01*
X36404762Y-10167676D02*
X36309524Y-10262914D01*
X36309524Y-10262914D02*
X36214286Y-10310533D01*
X5238095Y-4207200D02*
X5380952Y-4254819D01*
X5380952Y-4254819D02*
X5619047Y-4254819D01*
X5619047Y-4254819D02*
X5714285Y-4207200D01*
X5714285Y-4207200D02*
X5761904Y-4159580D01*
X5761904Y-4159580D02*
X5809523Y-4064342D01*
X5809523Y-4064342D02*
X5809523Y-3969104D01*
X5809523Y-3969104D02*
X5761904Y-3873866D01*
X5761904Y-3873866D02*
X5714285Y-3826247D01*
X5714285Y-3826247D02*
X5619047Y-3778628D01*
X5619047Y-3778628D02*
X5428571Y-3731009D01*
X5428571Y-3731009D02*
X5333333Y-3683390D01*
X5333333Y-3683390D02*
X5285714Y-3635771D01*
X5285714Y-3635771D02*
X5238095Y-3540533D01*
X5238095Y-3540533D02*
X5238095Y-3445295D01*
X5238095Y-3445295D02*
X5285714Y-3350057D01*
X5285714Y-3350057D02*
X5333333Y-3302438D01*
X5333333Y-3302438D02*
X5428571Y-3254819D01*
X5428571Y-3254819D02*
X5666666Y-3254819D01*
X5666666Y-3254819D02*
X5809523Y-3302438D01*
X6761904Y-4254819D02*
X6190476Y-4254819D01*
X6476190Y-4254819D02*
X6476190Y-3254819D01*
X6476190Y-3254819D02*
X6380952Y-3397676D01*
X6380952Y-3397676D02*
X6285714Y-3492914D01*
X6285714Y-3492914D02*
X6190476Y-3540533D01*
D11*
X15333333Y-4864895D02*
X15333333Y-5436323D01*
X15333333Y-5436323D02*
X15295238Y-5550609D01*
X15295238Y-5550609D02*
X15219047Y-5626800D01*
X15219047Y-5626800D02*
X15104762Y-5664895D01*
X15104762Y-5664895D02*
X15028571Y-5664895D01*
X15714286Y-5664895D02*
X15714286Y-4864895D01*
X15714286Y-4864895D02*
X16019048Y-4864895D01*
X16019048Y-4864895D02*
X16095238Y-4902990D01*
X16095238Y-4902990D02*
X16133333Y-4941085D01*
X16133333Y-4941085D02*
X16171429Y-5017276D01*
X16171429Y-5017276D02*
X16171429Y-5131561D01*
X16171429Y-5131561D02*
X16133333Y-5207752D01*
X16133333Y-5207752D02*
X16095238Y-5245847D01*
X16095238Y-5245847D02*
X16019048Y-5283942D01*
X16019048Y-5283942D02*
X15714286Y-5283942D01*
X16933333Y-5664895D02*
X16476190Y-5664895D01*
X16704762Y-5664895D02*
X16704762Y-4864895D01*
X16704762Y-4864895D02*
X16628571Y-4979180D01*
X16628571Y-4979180D02*
X16552381Y-5055371D01*
X16552381Y-5055371D02*
X16476190Y-5093466D01*
D10*
X62454819Y-25736666D02*
X61978628Y-26069999D01*
X62454819Y-26308094D02*
X61454819Y-26308094D01*
X61454819Y-26308094D02*
X61454819Y-25927142D01*
X61454819Y-25927142D02*
X61502438Y-25831904D01*
X61502438Y-25831904D02*
X61550057Y-25784285D01*
X61550057Y-25784285D02*
X61645295Y-25736666D01*
X61645295Y-25736666D02*
X61788152Y-25736666D01*
X61788152Y-25736666D02*
X61883390Y-25784285D01*
X61883390Y-25784285D02*
X61931009Y-25831904D01*
X61931009Y-25831904D02*
X61978628Y-25927142D01*
X61978628Y-25927142D02*
X61978628Y-26308094D01*
X61454819Y-25403332D02*
X61454819Y-24784285D01*
X61454819Y-24784285D02*
X61835771Y-25117618D01*
X61835771Y-25117618D02*
X61835771Y-24974761D01*
X61835771Y-24974761D02*
X61883390Y-24879523D01*
X61883390Y-24879523D02*
X61931009Y-24831904D01*
X61931009Y-24831904D02*
X62026247Y-24784285D01*
X62026247Y-24784285D02*
X62264342Y-24784285D01*
X62264342Y-24784285D02*
X62359580Y-24831904D01*
X62359580Y-24831904D02*
X62407200Y-24879523D01*
X62407200Y-24879523D02*
X62454819Y-24974761D01*
X62454819Y-24974761D02*
X62454819Y-25260475D01*
X62454819Y-25260475D02*
X62407200Y-25355713D01*
X62407200Y-25355713D02*
X62359580Y-25403332D01*
X41153333Y-20859580D02*
X41105714Y-20907200D01*
X41105714Y-20907200D02*
X40962857Y-20954819D01*
X40962857Y-20954819D02*
X40867619Y-20954819D01*
X40867619Y-20954819D02*
X40724762Y-20907200D01*
X40724762Y-20907200D02*
X40629524Y-20811961D01*
X40629524Y-20811961D02*
X40581905Y-20716723D01*
X40581905Y-20716723D02*
X40534286Y-20526247D01*
X40534286Y-20526247D02*
X40534286Y-20383390D01*
X40534286Y-20383390D02*
X40581905Y-20192914D01*
X40581905Y-20192914D02*
X40629524Y-20097676D01*
X40629524Y-20097676D02*
X40724762Y-20002438D01*
X40724762Y-20002438D02*
X40867619Y-19954819D01*
X40867619Y-19954819D02*
X40962857Y-19954819D01*
X40962857Y-19954819D02*
X41105714Y-20002438D01*
X41105714Y-20002438D02*
X41153333Y-20050057D01*
X42105714Y-20954819D02*
X41534286Y-20954819D01*
X41820000Y-20954819D02*
X41820000Y-19954819D01*
X41820000Y-19954819D02*
X41724762Y-20097676D01*
X41724762Y-20097676D02*
X41629524Y-20192914D01*
X41629524Y-20192914D02*
X41534286Y-20240533D01*
X55411905Y-37454819D02*
X55411905Y-36454819D01*
X55411905Y-36454819D02*
X55650000Y-36454819D01*
X55650000Y-36454819D02*
X55792857Y-36502438D01*
X55792857Y-36502438D02*
X55888095Y-36597676D01*
X55888095Y-36597676D02*
X55935714Y-36692914D01*
X55935714Y-36692914D02*
X55983333Y-36883390D01*
X55983333Y-36883390D02*
X55983333Y-37026247D01*
X55983333Y-37026247D02*
X55935714Y-37216723D01*
X55935714Y-37216723D02*
X55888095Y-37311961D01*
X55888095Y-37311961D02*
X55792857Y-37407200D01*
X55792857Y-37407200D02*
X55650000Y-37454819D01*
X55650000Y-37454819D02*
X55411905Y-37454819D01*
X56364286Y-36550057D02*
X56411905Y-36502438D01*
X56411905Y-36502438D02*
X56507143Y-36454819D01*
X56507143Y-36454819D02*
X56745238Y-36454819D01*
X56745238Y-36454819D02*
X56840476Y-36502438D01*
X56840476Y-36502438D02*
X56888095Y-36550057D01*
X56888095Y-36550057D02*
X56935714Y-36645295D01*
X56935714Y-36645295D02*
X56935714Y-36740533D01*
X56935714Y-36740533D02*
X56888095Y-36883390D01*
X56888095Y-36883390D02*
X56316667Y-37454819D01*
X56316667Y-37454819D02*
X56935714Y-37454819D01*
X61904761Y-32650057D02*
X61809523Y-32602438D01*
X61809523Y-32602438D02*
X61714285Y-32507200D01*
X61714285Y-32507200D02*
X61571428Y-32364342D01*
X61571428Y-32364342D02*
X61476190Y-32316723D01*
X61476190Y-32316723D02*
X61380952Y-32316723D01*
X61428571Y-32554819D02*
X61333333Y-32507200D01*
X61333333Y-32507200D02*
X61238095Y-32411961D01*
X61238095Y-32411961D02*
X61190476Y-32221485D01*
X61190476Y-32221485D02*
X61190476Y-31888152D01*
X61190476Y-31888152D02*
X61238095Y-31697676D01*
X61238095Y-31697676D02*
X61333333Y-31602438D01*
X61333333Y-31602438D02*
X61428571Y-31554819D01*
X61428571Y-31554819D02*
X61619047Y-31554819D01*
X61619047Y-31554819D02*
X61714285Y-31602438D01*
X61714285Y-31602438D02*
X61809523Y-31697676D01*
X61809523Y-31697676D02*
X61857142Y-31888152D01*
X61857142Y-31888152D02*
X61857142Y-32221485D01*
X61857142Y-32221485D02*
X61809523Y-32411961D01*
X61809523Y-32411961D02*
X61714285Y-32507200D01*
X61714285Y-32507200D02*
X61619047Y-32554819D01*
X61619047Y-32554819D02*
X61428571Y-32554819D01*
X62809523Y-32554819D02*
X62238095Y-32554819D01*
X62523809Y-32554819D02*
X62523809Y-31554819D01*
X62523809Y-31554819D02*
X62428571Y-31697676D01*
X62428571Y-31697676D02*
X62333333Y-31792914D01*
X62333333Y-31792914D02*
X62238095Y-31840533D01*
D11*
X59733333Y-19964895D02*
X59733333Y-20536323D01*
X59733333Y-20536323D02*
X59695238Y-20650609D01*
X59695238Y-20650609D02*
X59619047Y-20726800D01*
X59619047Y-20726800D02*
X59504762Y-20764895D01*
X59504762Y-20764895D02*
X59428571Y-20764895D01*
X60533333Y-20764895D02*
X60076190Y-20764895D01*
X60304762Y-20764895D02*
X60304762Y-19964895D01*
X60304762Y-19964895D02*
X60228571Y-20079180D01*
X60228571Y-20079180D02*
X60152381Y-20155371D01*
X60152381Y-20155371D02*
X60076190Y-20193466D01*
X58028571Y-21214895D02*
X57571428Y-21214895D01*
X57800000Y-21214895D02*
X57800000Y-20414895D01*
X57800000Y-20414895D02*
X57723809Y-20529180D01*
X57723809Y-20529180D02*
X57647619Y-20605371D01*
X57647619Y-20605371D02*
X57571428Y-20643466D01*
D10*
X61833333Y-23024819D02*
X61500000Y-22548628D01*
X61261905Y-23024819D02*
X61261905Y-22024819D01*
X61261905Y-22024819D02*
X61642857Y-22024819D01*
X61642857Y-22024819D02*
X61738095Y-22072438D01*
X61738095Y-22072438D02*
X61785714Y-22120057D01*
X61785714Y-22120057D02*
X61833333Y-22215295D01*
X61833333Y-22215295D02*
X61833333Y-22358152D01*
X61833333Y-22358152D02*
X61785714Y-22453390D01*
X61785714Y-22453390D02*
X61738095Y-22501009D01*
X61738095Y-22501009D02*
X61642857Y-22548628D01*
X61642857Y-22548628D02*
X61261905Y-22548628D01*
X62214286Y-22120057D02*
X62261905Y-22072438D01*
X62261905Y-22072438D02*
X62357143Y-22024819D01*
X62357143Y-22024819D02*
X62595238Y-22024819D01*
X62595238Y-22024819D02*
X62690476Y-22072438D01*
X62690476Y-22072438D02*
X62738095Y-22120057D01*
X62738095Y-22120057D02*
X62785714Y-22215295D01*
X62785714Y-22215295D02*
X62785714Y-22310533D01*
X62785714Y-22310533D02*
X62738095Y-22453390D01*
X62738095Y-22453390D02*
X62166667Y-23024819D01*
X62166667Y-23024819D02*
X62785714Y-23024819D01*
X32533333Y-36359580D02*
X32485714Y-36407200D01*
X32485714Y-36407200D02*
X32342857Y-36454819D01*
X32342857Y-36454819D02*
X32247619Y-36454819D01*
X32247619Y-36454819D02*
X32104762Y-36407200D01*
X32104762Y-36407200D02*
X32009524Y-36311961D01*
X32009524Y-36311961D02*
X31961905Y-36216723D01*
X31961905Y-36216723D02*
X31914286Y-36026247D01*
X31914286Y-36026247D02*
X31914286Y-35883390D01*
X31914286Y-35883390D02*
X31961905Y-35692914D01*
X31961905Y-35692914D02*
X32009524Y-35597676D01*
X32009524Y-35597676D02*
X32104762Y-35502438D01*
X32104762Y-35502438D02*
X32247619Y-35454819D01*
X32247619Y-35454819D02*
X32342857Y-35454819D01*
X32342857Y-35454819D02*
X32485714Y-35502438D01*
X32485714Y-35502438D02*
X32533333Y-35550057D01*
X32866667Y-35454819D02*
X33485714Y-35454819D01*
X33485714Y-35454819D02*
X33152381Y-35835771D01*
X33152381Y-35835771D02*
X33295238Y-35835771D01*
X33295238Y-35835771D02*
X33390476Y-35883390D01*
X33390476Y-35883390D02*
X33438095Y-35931009D01*
X33438095Y-35931009D02*
X33485714Y-36026247D01*
X33485714Y-36026247D02*
X33485714Y-36264342D01*
X33485714Y-36264342D02*
X33438095Y-36359580D01*
X33438095Y-36359580D02*
X33390476Y-36407200D01*
X33390476Y-36407200D02*
X33295238Y-36454819D01*
X33295238Y-36454819D02*
X33009524Y-36454819D01*
X33009524Y-36454819D02*
X32914286Y-36407200D01*
X32914286Y-36407200D02*
X32866667Y-36359580D01*
D11*
X47295237Y-22045847D02*
X47409523Y-22083942D01*
X47409523Y-22083942D02*
X47447618Y-22122038D01*
X47447618Y-22122038D02*
X47485714Y-22198228D01*
X47485714Y-22198228D02*
X47485714Y-22312514D01*
X47485714Y-22312514D02*
X47447618Y-22388704D01*
X47447618Y-22388704D02*
X47409523Y-22426800D01*
X47409523Y-22426800D02*
X47333333Y-22464895D01*
X47333333Y-22464895D02*
X47028571Y-22464895D01*
X47028571Y-22464895D02*
X47028571Y-21664895D01*
X47028571Y-21664895D02*
X47295237Y-21664895D01*
X47295237Y-21664895D02*
X47371428Y-21702990D01*
X47371428Y-21702990D02*
X47409523Y-21741085D01*
X47409523Y-21741085D02*
X47447618Y-21817276D01*
X47447618Y-21817276D02*
X47447618Y-21893466D01*
X47447618Y-21893466D02*
X47409523Y-21969657D01*
X47409523Y-21969657D02*
X47371428Y-22007752D01*
X47371428Y-22007752D02*
X47295237Y-22045847D01*
X47295237Y-22045847D02*
X47028571Y-22045847D01*
X47752380Y-21664895D02*
X48285714Y-21664895D01*
X48285714Y-21664895D02*
X47752380Y-22464895D01*
X47752380Y-22464895D02*
X48285714Y-22464895D01*
X49009523Y-22464895D02*
X48552380Y-22464895D01*
X48780952Y-22464895D02*
X48780952Y-21664895D01*
X48780952Y-21664895D02*
X48704761Y-21779180D01*
X48704761Y-21779180D02*
X48628571Y-21855371D01*
X48628571Y-21855371D02*
X48552380Y-21893466D01*
D10*
X23214285Y-13431009D02*
X23357142Y-13478628D01*
X23357142Y-13478628D02*
X23404761Y-13526247D01*
X23404761Y-13526247D02*
X23452380Y-13621485D01*
X23452380Y-13621485D02*
X23452380Y-13764342D01*
X23452380Y-13764342D02*
X23404761Y-13859580D01*
X23404761Y-13859580D02*
X23357142Y-13907200D01*
X23357142Y-13907200D02*
X23261904Y-13954819D01*
X23261904Y-13954819D02*
X22880952Y-13954819D01*
X22880952Y-13954819D02*
X22880952Y-12954819D01*
X22880952Y-12954819D02*
X23214285Y-12954819D01*
X23214285Y-12954819D02*
X23309523Y-13002438D01*
X23309523Y-13002438D02*
X23357142Y-13050057D01*
X23357142Y-13050057D02*
X23404761Y-13145295D01*
X23404761Y-13145295D02*
X23404761Y-13240533D01*
X23404761Y-13240533D02*
X23357142Y-13335771D01*
X23357142Y-13335771D02*
X23309523Y-13383390D01*
X23309523Y-13383390D02*
X23214285Y-13431009D01*
X23214285Y-13431009D02*
X22880952Y-13431009D01*
X23738095Y-12954819D02*
X24309523Y-12954819D01*
X24023809Y-13954819D02*
X24023809Y-12954819D01*
X25166666Y-13954819D02*
X24595238Y-13954819D01*
X24880952Y-13954819D02*
X24880952Y-12954819D01*
X24880952Y-12954819D02*
X24785714Y-13097676D01*
X24785714Y-13097676D02*
X24690476Y-13192914D01*
X24690476Y-13192914D02*
X24595238Y-13240533D01*
D12*
%TO.C,R1*%
X32762742Y-11477500D02*
X33237258Y-11477500D01*
X32762742Y-12522500D02*
X33237258Y-12522500D01*
%TO.C,C2*%
X48490000Y-20640580D02*
X48490000Y-20359420D01*
X49510000Y-20640580D02*
X49510000Y-20359420D01*
D13*
%TO.C,U1*%
X48250000Y-3250000D02*
X60750000Y-3250000D01*
X48250000Y-8680000D02*
X48250000Y-3250000D01*
X48250000Y-17750000D02*
X48250000Y-16320000D01*
X49930000Y-17750000D02*
X48250000Y-17750000D01*
X60750000Y-3250000D02*
X60750000Y-8680000D01*
X60750000Y-16320000D02*
X60750000Y-17750000D01*
X60750000Y-17750000D02*
X59070000Y-17750000D01*
D14*
X47350000Y-9500000D02*
G75*
G02*
X47150000Y-9500000I-100000J0D01*
G01*
X47150000Y-9500000D02*
G75*
G02*
X47350000Y-9500000I100000J0D01*
G01*
D12*
%TO.C,D1*%
X34515000Y-11265000D02*
X34515000Y-12735000D01*
X34515000Y-12735000D02*
X36800000Y-12735000D01*
X36800000Y-11265000D02*
X34515000Y-11265000D01*
%TO.C,S1*%
X2550000Y-6930000D02*
X2550000Y-7720000D01*
X3150000Y-8730000D02*
X8850000Y-8730000D01*
X4400000Y-5880000D02*
X6100000Y-5880000D01*
X4600000Y-8730000D02*
X4600000Y-10020000D01*
X4600000Y-10020000D02*
X4800000Y-10230000D01*
X4800000Y-10230000D02*
X5700000Y-10230000D01*
X5900000Y-10020000D02*
X5700000Y-10230000D01*
X5900000Y-10020000D02*
X5900000Y-8730000D01*
X7400000Y-5880000D02*
X7600000Y-5880000D01*
X9450000Y-7720000D02*
X9450000Y-6930000D01*
%TO.C,R3*%
X61762742Y-26477500D02*
X62237258Y-26477500D01*
X61762742Y-27522500D02*
X62237258Y-27522500D01*
%TO.C,C1*%
X42265000Y-20761252D02*
X42265000Y-20238748D01*
X43735000Y-20761252D02*
X43735000Y-20238748D01*
%TO.C,D2*%
X57150000Y-38610000D02*
X58850000Y-38610000D01*
X57150000Y-38610000D02*
X57150000Y-35950000D01*
X58850000Y-38610000D02*
X58850000Y-35950000D01*
%TO.C,Q1*%
X62000000Y-32940000D02*
X61350000Y-32940000D01*
X62000000Y-32940000D02*
X62650000Y-32940000D01*
X62000000Y-36060000D02*
X61350000Y-36060000D01*
X62000000Y-36060000D02*
X62650000Y-36060000D01*
X60837500Y-32990000D02*
X60597500Y-32660000D01*
X61077500Y-32660000D01*
X60837500Y-32990000D01*
G36*
X60837500Y-32990000D02*
G01*
X60597500Y-32660000D01*
X61077500Y-32660000D01*
X60837500Y-32990000D01*
G37*
%TO.C,R2*%
X61762742Y-23477500D02*
X62237258Y-23477500D01*
X61762742Y-24522500D02*
X62237258Y-24522500D01*
%TO.C,C3*%
X33640000Y-36711252D02*
X33640000Y-35288748D01*
X36360000Y-36711252D02*
X36360000Y-35288748D01*
%TD*%
M02*
