%TF.GenerationSoftware,KiCad,Pcbnew,9.0.3*%
%TF.CreationDate,2026-09-20T17:49:36-06:00*%
%TF.ProjectId,SafeGuardBuzzer_v1,53616665-4775-4617-9264-42757a7a6572,rev?*%
%TF.SameCoordinates,Original*%
%TF.FileFunction,Copper,L1,Top*%
%TF.FilePolarity,Positive*%
%FSLAX46Y46*%
G04 Gerber Fmt 4.6, Leading zero omitted, Abs format (unit mm)*
G04 Created by KiCad (PCBNEW 9.0.3) date 2026-09-20 17:49:36*
%MOMM*%
%LPD*%
G01*
G04 APERTURE LIST*
G04 Aperture macros list*
%AMRoundRect*
0 Rectangle with rounded corners*
0 $1 Rounding radius*
0 $2 $3 $4 $5 $6 $7 $8 $9 X,Y pos of 4 corners*
0 Add a 4 corners polygon primitive as box body*
4,1,4,$2,$3,$4,$5,$6,$7,$8,$9,$2,$3,0*
0 Add four circle primitives for the rounded corners*
1,1,$1+$1,$2,$3*
1,1,$1+$1,$4,$5*
1,1,$1+$1,$6,$7*
1,1,$1+$1,$8,$9*
0 Add four rect primitives between the rounded corners*
20,1,$1+$1,$2,$3,$4,$5,0*
20,1,$1+$1,$4,$5,$6,$7,0*
20,1,$1+$1,$6,$7,$8,$9,0*
20,1,$1+$1,$8,$9,$2,$3,0*%
%AMFreePoly0*
4,1,119,0.103536,0.503536,0.105000,0.500000,0.105000,-0.500000,0.103536,-0.503536,0.100000,-0.505000,-0.500000,-0.505000,-0.500192,-0.504996,-0.526192,-0.503996,-0.526383,-0.503985,-0.552383,-0.501985,-0.552573,-0.501967,-0.578573,-0.498967,-0.578944,-0.498910,-0.604944,-0.493910,-0.605167,-0.493862,-0.630167,-0.487862,-0.630300,-0.487828,-0.656300,-0.480828,-0.656756,-0.480682,-0.680756,-0.471682,
-0.680923,-0.471615,-0.704923,-0.461615,-0.705083,-0.461545,-0.729083,-0.450545,-0.729460,-0.450353,-0.752460,-0.437353,-0.752684,-0.437218,-0.796684,-0.409218,-0.797030,-0.408977,-0.818030,-0.392977,-0.818238,-0.392810,-0.838238,-0.375810,-0.838439,-0.375630,-0.857439,-0.357630,-0.857630,-0.357439,-0.875630,-0.338439,-0.875810,-0.338238,-0.892810,-0.318238,-0.892977,-0.318030,-0.908977,-0.297030,
-0.909218,-0.296684,-0.937218,-0.252684,-0.937353,-0.252460,-0.950262,-0.229621,-0.966160,-0.205774,-0.966895,-0.204020,-0.971816,-0.180398,-0.980682,-0.156756,-0.980828,-0.156300,-0.987828,-0.130300,-0.987862,-0.130167,-0.993862,-0.105167,-0.993910,-0.104944,-0.998910,-0.078944,-0.998967,-0.078573,-1.001967,-0.052573,-1.001985,-0.052383,-1.003985,-0.026383,-1.003996,-0.026192,-1.004996,-0.000192,
-1.004996,0.000192,-1.003996,0.026192,-1.003985,0.026383,-1.001985,0.052383,-1.001967,0.052573,-0.998967,0.078573,-0.998910,0.078944,-0.993910,0.104944,-0.993862,0.105167,-0.987862,0.130167,-0.987828,0.130300,-0.980828,0.156300,-0.980682,0.156756,-0.971682,0.180756,-0.971615,0.180923,-0.961615,0.204923,-0.961545,0.205083,-0.950545,0.229083,-0.950353,0.229460,-0.937353,0.252460,
-0.937218,0.252684,-0.909218,0.296684,-0.908977,0.297030,-0.892977,0.318030,-0.892810,0.318238,-0.875810,0.338238,-0.875630,0.338439,-0.857630,0.357439,-0.857439,0.357630,-0.838439,0.375630,-0.838238,0.375810,-0.818238,0.392810,-0.818030,0.392977,-0.797030,0.408977,-0.796684,0.409218,-0.752684,0.437218,-0.752460,0.437353,-0.729460,0.450353,-0.729083,0.450545,-0.705083,0.461545,
-0.704923,0.461615,-0.680923,0.471615,-0.680756,0.471682,-0.656756,0.480682,-0.656300,0.480828,-0.630300,0.487828,-0.630167,0.487862,-0.605167,0.493862,-0.604944,0.493910,-0.578944,0.498910,-0.578573,0.498967,-0.552573,0.501967,-0.552383,0.501985,-0.526383,0.503985,-0.526192,0.503996,-0.500192,0.504996,-0.500000,0.505000,0.100000,0.505000,0.103536,0.503536,0.103536,0.503536,
$1*%
%AMFreePoly1*
4,1,119,1.003536,0.503536,1.005000,0.500000,1.005000,-0.500000,1.003536,-0.503536,1.000000,-0.505000,-0.500000,-0.505000,-0.500192,-0.504996,-0.526192,-0.503996,-0.526383,-0.503985,-0.552383,-0.501985,-0.552573,-0.501967,-0.578573,-0.498967,-0.578944,-0.498910,-0.604944,-0.493910,-0.605167,-0.493862,-0.630167,-0.487862,-0.630300,-0.487828,-0.656300,-0.480828,-0.656756,-0.480682,-0.680756,-0.471682,
-0.680923,-0.471615,-0.704923,-0.461615,-0.705083,-0.461545,-0.729083,-0.450545,-0.729460,-0.450353,-0.752460,-0.437353,-0.752684,-0.437218,-0.796684,-0.409218,-0.797030,-0.408977,-0.818030,-0.392977,-0.818238,-0.392810,-0.838238,-0.375810,-0.838439,-0.375630,-0.857439,-0.357630,-0.857630,-0.357439,-0.875630,-0.338439,-0.875810,-0.338238,-0.892810,-0.318238,-0.892977,-0.318030,-0.908977,-0.297030,
-0.909218,-0.296684,-0.937218,-0.252684,-0.937353,-0.252460,-0.950262,-0.229621,-0.966160,-0.205774,-0.966895,-0.204020,-0.971816,-0.180398,-0.980682,-0.156756,-0.980828,-0.156300,-0.987828,-0.130300,-0.987862,-0.130167,-0.993862,-0.105167,-0.993910,-0.104944,-0.998910,-0.078944,-0.998967,-0.078573,-1.001967,-0.052573,-1.001985,-0.052383,-1.003985,-0.026383,-1.003996,-0.026192,-1.004996,-0.000192,
-1.004996,0.000192,-1.003996,0.026192,-1.003985,0.026383,-1.001985,0.052383,-1.001967,0.052573,-0.998967,0.078573,-0.998910,0.078944,-0.993910,0.104944,-0.993862,0.105167,-0.987862,0.130167,-0.987828,0.130300,-0.980828,0.156300,-0.980682,0.156756,-0.971682,0.180756,-0.971615,0.180923,-0.961615,0.204923,-0.961545,0.205083,-0.950545,0.229083,-0.950353,0.229460,-0.937353,0.252460,
-0.937218,0.252684,-0.909218,0.296684,-0.908977,0.297030,-0.892977,0.318030,-0.892810,0.318238,-0.875810,0.338238,-0.875630,0.338439,-0.857630,0.357439,-0.857439,0.357630,-0.838439,0.375630,-0.838238,0.375810,-0.818238,0.392810,-0.818030,0.392977,-0.797030,0.408977,-0.796684,0.409218,-0.752684,0.437218,-0.752460,0.437353,-0.729460,0.450353,-0.729083,0.450545,-0.705083,0.461545,
-0.704923,0.461615,-0.680923,0.471615,-0.680756,0.471682,-0.656756,0.480682,-0.656300,0.480828,-0.630300,0.487828,-0.630167,0.487862,-0.605167,0.493862,-0.604944,0.493910,-0.578944,0.498910,-0.578573,0.498967,-0.552573,0.501967,-0.552383,0.501985,-0.526383,0.503985,-0.526192,0.503996,-0.500192,0.504996,-0.500000,0.505000,1.000000,0.505000,1.003536,0.503536,1.003536,0.503536,
$1*%
%AMFreePoly2*
4,1,117,0.503536,1.003536,0.505000,1.000000,0.505000,-0.500000,0.504996,-0.500192,0.503996,-0.526192,0.503985,-0.526383,0.501985,-0.552383,0.501967,-0.552573,0.498967,-0.578573,0.498910,-0.578944,0.493910,-0.604944,0.493862,-0.605167,0.487862,-0.630167,0.487828,-0.630300,0.480828,-0.656300,0.480682,-0.656756,0.471816,-0.680398,0.466895,-0.704020,0.466160,-0.705774,0.450262,-0.729621,
0.437353,-0.752460,0.437218,-0.752684,0.409218,-0.796684,0.408977,-0.797030,0.392977,-0.818030,0.392810,-0.818238,0.375810,-0.838238,0.375630,-0.838439,0.357630,-0.857439,0.357439,-0.857630,0.338439,-0.875630,0.338238,-0.875810,0.318238,-0.892810,0.318030,-0.892977,0.297030,-0.908977,0.296684,-0.909218,0.252684,-0.937218,0.252460,-0.937353,0.229460,-0.950353,0.229083,-0.950545,
0.205083,-0.961545,0.204923,-0.961615,0.180923,-0.971615,0.180756,-0.971682,0.156756,-0.980682,0.156300,-0.980828,0.130300,-0.987828,0.130167,-0.987862,0.105167,-0.993862,0.104944,-0.993910,0.078944,-0.998910,0.078573,-0.998967,0.052573,-1.001967,0.052383,-1.001985,0.026383,-1.003985,0.026192,-1.003996,0.000192,-1.004996,-0.000192,-1.004996,-0.026192,-1.003996,-0.026383,-1.003985,
-0.052383,-1.001985,-0.052573,-1.001967,-0.078573,-0.998967,-0.078944,-0.998910,-0.104944,-0.993910,-0.105167,-0.993862,-0.130167,-0.987862,-0.130300,-0.987828,-0.156300,-0.980828,-0.156756,-0.980682,-0.180756,-0.971682,-0.180923,-0.971615,-0.204923,-0.961615,-0.205083,-0.961545,-0.229083,-0.950545,-0.229460,-0.950353,-0.252460,-0.937353,-0.252684,-0.937218,-0.296684,-0.909218,-0.297030,-0.908977,
-0.318030,-0.892977,-0.318238,-0.892810,-0.338238,-0.875810,-0.338439,-0.875630,-0.357439,-0.857630,-0.357630,-0.857439,-0.375630,-0.838439,-0.375810,-0.838238,-0.392810,-0.818238,-0.392977,-0.818030,-0.408977,-0.797030,-0.409218,-0.796684,-0.437218,-0.752684,-0.437353,-0.752460,-0.450262,-0.729621,-0.466160,-0.705774,-0.466895,-0.704020,-0.471816,-0.680398,-0.480682,-0.656756,-0.480828,-0.656300,
-0.487828,-0.630300,-0.487862,-0.630167,-0.493862,-0.605167,-0.493910,-0.604944,-0.498910,-0.578944,-0.498967,-0.578573,-0.501967,-0.552573,-0.501985,-0.552383,-0.503985,-0.526383,-0.503996,-0.526192,-0.504996,-0.500192,-0.505000,-0.500000,-0.505000,1.000000,-0.503536,1.003536,-0.500000,1.005000,0.500000,1.005000,0.503536,1.003536,0.503536,1.003536,$1*%
%AMFreePoly3*
4,1,119,0.500192,0.504996,0.526192,0.503996,0.526383,0.503985,0.552383,0.501985,0.552573,0.501967,0.578573,0.498967,0.578944,0.498910,0.604944,0.493910,0.605167,0.493862,0.630167,0.487862,0.630300,0.487828,0.656300,0.480828,0.656756,0.480682,0.680756,0.471682,0.680923,0.471615,0.704923,0.461615,0.705083,0.461545,0.729083,0.450545,0.729460,0.450353,0.752460,0.437353,
0.752684,0.437218,0.796684,0.409218,0.797030,0.408977,0.818030,0.392977,0.818238,0.392810,0.838238,0.375810,0.838439,0.375630,0.857439,0.357630,0.857630,0.357439,0.875630,0.338439,0.875810,0.338238,0.892810,0.318238,0.892977,0.318030,0.908977,0.297030,0.909218,0.296684,0.937218,0.252684,0.937353,0.252460,0.950353,0.229460,0.950545,0.229083,0.961545,0.205083,
0.961615,0.204923,0.971615,0.180923,0.971682,0.180756,0.980682,0.156756,0.980828,0.156300,0.987828,0.130300,0.987862,0.130167,0.993862,0.105167,0.993910,0.104944,0.998910,0.078944,0.998967,0.078573,1.001967,0.052573,1.001985,0.052383,1.003985,0.026383,1.003996,0.026192,1.004996,0.000192,1.004996,-0.000192,1.003996,-0.026192,1.003985,-0.026383,1.001985,-0.052383,
1.001967,-0.052573,0.998967,-0.078573,0.998910,-0.078944,0.993910,-0.104944,0.993862,-0.105167,0.987862,-0.130167,0.987828,-0.130300,0.980828,-0.156300,0.980682,-0.156756,0.971816,-0.180398,0.966895,-0.204020,0.966160,-0.205774,0.950262,-0.229621,0.937353,-0.252460,0.937218,-0.252684,0.909218,-0.296684,0.908977,-0.297030,0.892977,-0.318030,0.892810,-0.318238,0.875810,-0.338238,
0.875630,-0.338439,0.857630,-0.357439,0.857439,-0.357630,0.838439,-0.375630,0.838238,-0.375810,0.818238,-0.392810,0.818030,-0.392977,0.797030,-0.408977,0.796684,-0.409218,0.752684,-0.437218,0.752460,-0.437353,0.729460,-0.450353,0.729083,-0.450545,0.705083,-0.461545,0.704923,-0.461615,0.680923,-0.471615,0.680756,-0.471682,0.656756,-0.480682,0.656300,-0.480828,0.630300,-0.487828,
0.630167,-0.487862,0.605167,-0.493862,0.604944,-0.493910,0.578944,-0.498910,0.578573,-0.498967,0.552573,-0.501967,0.552383,-0.501985,0.526383,-0.503985,0.526192,-0.503996,0.500192,-0.504996,0.500000,-0.505000,-1.000000,-0.505000,-1.003536,-0.503536,-1.005000,-0.500000,-1.005000,0.500000,-1.003536,0.503536,-1.000000,0.505000,0.500000,0.505000,0.500192,0.504996,0.500192,0.504996,
$1*%
G04 Aperture macros list end*
%TA.AperFunction,SMDPad,CuDef*%
%ADD10RoundRect,0.200000X-0.200000X-0.275000X0.200000X-0.275000X0.200000X0.275000X-0.200000X0.275000X0*%
%TD*%
%TA.AperFunction,SMDPad,CuDef*%
%ADD11RoundRect,0.225000X-0.225000X-0.250000X0.225000X-0.250000X0.225000X0.250000X-0.225000X0.250000X0*%
%TD*%
%TA.AperFunction,SMDPad,CuDef*%
%ADD12FreePoly0,0.000000*%
%TD*%
%TA.AperFunction,SMDPad,CuDef*%
%ADD13FreePoly1,0.000000*%
%TD*%
%TA.AperFunction,SMDPad,CuDef*%
%ADD14FreePoly2,0.000000*%
%TD*%
%TA.AperFunction,SMDPad,CuDef*%
%ADD15FreePoly3,0.000000*%
%TD*%
%TA.AperFunction,SMDPad,CuDef*%
%ADD16C,1.000000*%
%TD*%
%TA.AperFunction,SMDPad,CuDef*%
%ADD17RoundRect,0.218750X-0.218750X-0.256250X0.218750X-0.256250X0.218750X0.256250X-0.218750X0.256250X0*%
%TD*%
%TA.AperFunction,SMDPad,CuDef*%
%ADD18R,1.000000X0.800000*%
%TD*%
%TA.AperFunction,SMDPad,CuDef*%
%ADD19R,0.700000X1.500000*%
%TD*%
%TA.AperFunction,SMDPad,CuDef*%
%ADD20RoundRect,0.260000X-0.490000X-0.390000X0.490000X-0.390000X0.490000X0.390000X-0.490000X0.390000X0*%
%TD*%
%TA.AperFunction,SMDPad,CuDef*%
%ADD21RoundRect,0.200000X0.275000X-0.200000X0.275000X0.200000X-0.275000X0.200000X-0.275000X-0.200000X0*%
%TD*%
%TA.AperFunction,SMDPad,CuDef*%
%ADD22RoundRect,0.250000X-0.250000X-0.475000X0.250000X-0.475000X0.250000X0.475000X-0.250000X0.475000X0*%
%TD*%
%TA.AperFunction,SMDPad,CuDef*%
%ADD23RoundRect,0.112500X-0.187500X-0.112500X0.187500X-0.112500X0.187500X0.112500X-0.187500X0.112500X0*%
%TD*%
%TA.AperFunction,SMDPad,CuDef*%
%ADD24RoundRect,0.150000X-0.587500X-0.150000X0.587500X-0.150000X0.587500X0.150000X-0.587500X0.150000X0*%
%TD*%
%TA.AperFunction,SMDPad,CuDef*%
%ADD25RoundRect,0.250000X-0.325000X-1.100000X0.325000X-1.100000X0.325000X1.100000X-0.325000X1.100000X0*%
%TD*%
%TA.AperFunction,SMDPad,CuDef*%
%ADD26R,2.500000X4.000000*%
%TD*%
%TA.AperFunction,SMDPad,CuDef*%
%ADD27R,2.600000X7.600000*%
%TD*%
%TA.AperFunction,SMDPad,CuDef*%
%ADD28C,8.000000*%
%TD*%
%TA.AperFunction,ViaPad*%
%ADD29C,0.700000*%
%TD*%
%TA.AperFunction,ViaPad*%
%ADD30C,0.900000*%
%TD*%
%TA.AperFunction,ViaPad*%
%ADD31C,0.600000*%
%TD*%
%TA.AperFunction,Conductor*%
%ADD32C,0.500000*%
%TD*%
%TA.AperFunction,Conductor*%
%ADD33C,0.450000*%
%TD*%
%TA.AperFunction,Conductor*%
%ADD34C,0.300000*%
%TD*%
%TA.AperFunction,Conductor*%
%ADD35C,0.350000*%
%TD*%
%TA.AperFunction,Conductor*%
%ADD36C,0.220000*%
%TD*%
%TA.AperFunction,Conductor*%
%ADD37C,0.250000*%
%TD*%
%TA.AperFunction,Conductor*%
%ADD38C,0.600000*%
%TD*%
%TA.AperFunction,Conductor*%
%ADD39C,0.200000*%
%TD*%
G04 APERTURE END LIST*
D10*
%TO.P,R1,1*%
%TO.N,VCC*%
X32175000Y-12000000D03*
%TO.P,R1,2*%
%TO.N,LED_A*%
X33825000Y-12000000D03*
%TD*%
D11*
%TO.P,C2,1*%
%TO.N,VCC*%
X49000000Y-21275000D03*
%TO.P,C2,2*%
%TO.N,GND*%
X49000000Y-19725000D03*
%TD*%
D12*
%TO.P,U1,J1*%
%TO.N,GND*%
X48750000Y-9500000D03*
D13*
%TO.P,U1,J2*%
X48750000Y-11000000D03*
%TO.P,U1,J3*%
X48750000Y-12500000D03*
%TO.P,U1,J4*%
X48750000Y-14000000D03*
%TO.P,U1,J5*%
%TO.N,unconnected-(U1-P0_6-PadJ5)*%
X48750000Y-15500000D03*
D14*
%TO.P,U1,J6*%
%TO.N,GND*%
X50750000Y-17250000D03*
%TO.P,U1,J7*%
%TO.N,VCC*%
X52250000Y-17250000D03*
%TO.P,U1,J8*%
%TO.N,unconnected-(U1-P0_11-PadJ8)*%
X53750000Y-17250000D03*
%TO.P,U1,J9*%
%TO.N,SWDIO*%
X55250000Y-17250000D03*
%TO.P,U1,J10*%
%TO.N,SWCLK*%
X56750000Y-17250000D03*
%TO.P,U1,J11*%
%TO.N,GND*%
X58250000Y-17250000D03*
D15*
%TO.P,U1,J12*%
%TO.N,unconnected-(U1-P0_0{slash}RST-PadJ12)*%
X60250000Y-15500000D03*
%TO.P,U1,J13*%
%TO.N,unconnected-(U1-P0_7-PadJ13)*%
X60250000Y-14000000D03*
%TO.P,U1,J14*%
%TO.N,unconnected-(U1-P0_5-PadJ14)*%
X60250000Y-12500000D03*
%TO.P,U1,J15*%
%TO.N,BUZZER_PWM*%
X60250000Y-11000000D03*
%TO.P,U1,J16*%
%TO.N,LED_STATUS*%
X60250000Y-9500000D03*
%TD*%
D16*
%TO.P,J2,1*%
%TO.N,VBAT_RAW*%
X11365000Y-11000000D03*
%TO.P,J2,2*%
%TO.N,GND*%
X12635000Y-11000000D03*
%TD*%
D17*
%TO.P,D1,1*%
%TO.N,LED_A*%
X35212500Y-12000000D03*
%TO.P,D1,2*%
%TO.N,LED_STATUS*%
X36787500Y-12000000D03*
%TD*%
D18*
%TO.P,S1,*%
%TO.N,*%
X2350000Y-6220000D03*
X2350000Y-8430000D03*
X9650000Y-6220000D03*
X9650000Y-8430000D03*
D19*
%TO.P,S1,1*%
%TO.N,unconnected-(S1-A-Pad1)*%
X3750000Y-5570000D03*
%TO.P,S1,2*%
%TO.N,VBAT_RAW*%
X6750000Y-5570000D03*
%TO.P,S1,3*%
%TO.N,VBAT_SW*%
X8250000Y-5570000D03*
%TD*%
D20*
%TO.P,JP1,1*%
%TO.N,VBAT_SW*%
X15050000Y-7000000D03*
%TO.P,JP1,2*%
%TO.N,VCC*%
X16950000Y-7000000D03*
%TD*%
D21*
%TO.P,R3,1*%
%TO.N,BUZZER_PWM_GATE*%
X61175000Y-27000000D03*
%TO.P,R3,2*%
%TO.N,GND*%
X62825000Y-27000000D03*
%TD*%
D22*
%TO.P,C1,1*%
%TO.N,VCC*%
X43000000Y-21450000D03*
%TO.P,C1,2*%
%TO.N,GND*%
X43000000Y-19550000D03*
%TD*%
D23*
%TO.P,D2,1*%
%TO.N,BUZZER_NEG*%
X58000000Y-38050000D03*
%TO.P,D2,2*%
%TO.N,VCC*%
X58000000Y-35950000D03*
%TD*%
D24*
%TO.P,Q1,1*%
%TO.N,BUZZER_PWM_GATE*%
X61062500Y-33550000D03*
%TO.P,Q1,2*%
%TO.N,BUZZER_NEG*%
X61062500Y-35450000D03*
%TO.P,Q1,3*%
%TO.N,GND*%
X62937500Y-34500000D03*
%TD*%
D16*
%TO.P,J1,1*%
%TO.N,VCC*%
X58095000Y-22000000D03*
%TO.P,J1,2*%
%TO.N,SWDIO*%
X59365000Y-22000000D03*
%TO.P,J1,3*%
%TO.N,SWCLK*%
X60635000Y-22000000D03*
%TO.P,J1,4*%
%TO.N,GND*%
X61905000Y-22000000D03*
%TD*%
D10*
%TO.P,R2,1*%
%TO.N,BUZZER_PWM*%
X61175000Y-24000000D03*
%TO.P,R2,2*%
%TO.N,BUZZER_PWM_GATE*%
X62825000Y-24000000D03*
%TD*%
D25*
%TO.P,C3,1*%
%TO.N,VCC*%
X35000000Y-37475000D03*
%TO.P,C3,2*%
%TO.N,GND*%
X35000000Y-34525000D03*
%TD*%
D26*
%TO.P,BZ1,1*%
%TO.N,VCC*%
X48000000Y-25500000D03*
%TO.P,BZ1,2*%
%TO.N,BUZZER_NEG*%
X48000000Y-36500000D03*
%TD*%
D27*
%TO.P,BT1,1*%
%TO.N,VBAT_RAW*%
X10350000Y-24000000D03*
X37650000Y-24000000D03*
D28*
%TO.P,BT1,2*%
%TO.N,GND*%
X24000000Y-24000000D03*
%TD*%
D29*
%TO.N,VBAT_RAW*%
X10350000Y-18500000D03*
X37650000Y-14200000D03*
D30*
%TO.N,GND*%
X24000000Y-34000000D03*
D31*
X12635000Y-11000000D03*
X47400000Y-9500000D03*
X47400000Y-11000000D03*
X47400000Y-12500000D03*
X47400000Y-14000000D03*
X50750000Y-17250000D03*
X62937500Y-34500000D03*
X62825000Y-27000000D03*
X35000000Y-34525000D03*
X49000000Y-18800000D03*
%TO.N,LED_STATUS*%
X62200000Y-9500000D03*
X36787500Y-12000000D03*
%TO.N,BUZZER_PWM*%
X61500000Y-11000000D03*
X61175000Y-24000000D03*
%TO.N,GND*%
X63200000Y-22000000D03*
%TO.N,SWDIO*%
X55250000Y-17250000D03*
X59365000Y-22000000D03*
%TO.N,GND*%
X58250000Y-17250000D03*
%TD*%
D32*
%TO.N,VBAT_RAW*%
X10350000Y-24000000D02*
X10350000Y-18500000D01*
D33*
X37650000Y-14200000D02*
X37650000Y-24000000D01*
D34*
X10350000Y-18500000D02*
X10350000Y-12200000D01*
X10350000Y-12200000D02*
X11365000Y-11000000D01*
X10350000Y-12200000D02*
X5500000Y-12200000D01*
X5500000Y-12200000D02*
X5500000Y-2000000D01*
X5500000Y-2000000D02*
X6750000Y-2000000D01*
X6750000Y-2000000D02*
X6750000Y-5570000D01*
%TO.N,VBAT_SW*%
X8250000Y-5570000D02*
X8250000Y-3600000D01*
X8250000Y-3600000D02*
X15050000Y-3600000D01*
X15050000Y-3600000D02*
X15050000Y-7000000D01*
D33*
%TO.N,VCC*%
X16950000Y-7000000D02*
X24000000Y-7000000D01*
X24000000Y-7000000D02*
X42000000Y-7000000D01*
X42000000Y-7000000D02*
X42000000Y-24200000D01*
X35000000Y-37475000D02*
X40500000Y-37475000D01*
X40500000Y-37475000D02*
X40500000Y-24200000D01*
X40500000Y-24200000D02*
X49000000Y-24200000D01*
X43000000Y-24200000D02*
X43000000Y-21450000D01*
D35*
X49000000Y-24200000D02*
X49000000Y-21275000D01*
D36*
X49000000Y-21275000D02*
X52250000Y-21275000D01*
X52250000Y-21275000D02*
X52250000Y-17250000D01*
D37*
X49000000Y-24200000D02*
X58095000Y-22000000D01*
X30000000Y-7000000D02*
X30000000Y-12000000D01*
X30000000Y-12000000D02*
X32175000Y-12000000D01*
D33*
X49000000Y-24200000D02*
X48000000Y-25500000D01*
D34*
X48000000Y-25500000D02*
X58000000Y-35950000D01*
D38*
%TO.N,GND*%
X24000000Y-24000000D02*
X24000000Y-34000000D01*
D37*
X48750000Y-9500000D02*
X47400000Y-9500000D01*
X48750000Y-11000000D02*
X47400000Y-11000000D01*
X48750000Y-12500000D02*
X47400000Y-12500000D01*
X48750000Y-14000000D02*
X47400000Y-14000000D01*
X43000000Y-19550000D02*
X49000000Y-18800000D01*
X49000000Y-19725000D02*
X49000000Y-18800000D01*
D39*
%TO.N,LED_A*%
X33825000Y-12000000D02*
X35212500Y-12000000D01*
%TO.N,LED_STATUS*%
X60250000Y-9500000D02*
X62200000Y-9500000D01*
%TO.N,BUZZER_PWM*%
X60250000Y-11000000D02*
X61500000Y-11000000D01*
D36*
%TO.N,BUZZER_PWM_GATE*%
X62825000Y-24000000D02*
X62825000Y-25400000D01*
X62825000Y-25400000D02*
X61175000Y-25400000D01*
X61175000Y-25400000D02*
X61175000Y-27000000D01*
X61175000Y-27000000D02*
X61175000Y-31400000D01*
X61175000Y-31400000D02*
X61062500Y-33550000D01*
D33*
%TO.N,BUZZER_NEG*%
X48000000Y-36500000D02*
X58000000Y-37265600D01*
X58000000Y-37265600D02*
X61062500Y-37500000D01*
X61062500Y-37500000D02*
X61062500Y-35450000D01*
D34*
X58000000Y-37265600D02*
X58000000Y-38050000D01*
D39*
%TO.N,SWCLK*%
X56750000Y-17250000D02*
X56750000Y-20800000D01*
X56750000Y-20800000D02*
X60635000Y-20800000D01*
X60635000Y-20800000D02*
X60635000Y-22000000D01*
D37*
%TO.N,GND*%
X61905000Y-22000000D02*
X63200000Y-22000000D01*
%TD*%
M02*
